<?xml version="1.0" standalone="no"?>
<!DOCTYPE svg PUBLIC "-//W3C//DTD SVG 20010904//EN"
 "http://www.w3.org/TR/2001/REC-SVG-20010904/DTD/svg10.dtd">
<svg version="1.0" xmlns="http://www.w3.org/2000/svg"
 width="300.000000pt" height="300.000000pt" viewBox="0 0 300.000000 300.000000"
 preserveAspectRatio="xMidYMid meet">
<metadata>
Created by potrace 1.10, written by Peter Selinger 2001-2011
</metadata>
<g transform="translate(0.000000,300.000000) scale(0.050000,-0.050000)"
fill="#ffffff" stroke="none">
<path d="M11 5868 c-8 -72 -9 -136 -3 -143 7 -6 12 21 12 62 0 70 3 73 70 73
67 0 70 -3 70 -70 0 -68 2 -70 80 -70 78 0 80 2 80 70 0 112 134 108 144 -4 5
-68 11 -74 66 -74 55 0 61 6 66 74 10 120 144 114 144 -6 0 -78 -2 -80 -70
-80 -67 0 -70 -3 -70 -70 0 -112 134 -108 144 5 6 71 10 75 76 76 112 2 108
136 -5 145 -71 6 -75 10 -75 75 0 65 -4 69 -70 69 -67 0 -70 -3 -70 -70 0 -67
-3 -70 -70 -70 -67 0 -70 3 -70 70 0 67 -3 70 -70 70 -67 0 -70 -3 -70 -70 0
-68 -2 -70 -80 -70 -78 0 -80 2 -80 70 0 66 -4 70 -68 70 l-67 0 -14 -132z"/>
<path d="M900 5930 c0 -67 3 -70 70 -70 67 0 70 -3 70 -70 0 -64 5 -70 60 -70
33 0 67 0 75 0 66 0 9 131 -60 136 -71 6 -75 10 -75 75 0 65 -4 69 -70 69 -67
0 -70 -3 -70 -70z"/>
<path d="M1200 5930 c0 -67 3 -70 70 -70 67 0 70 -3 70 -70 0 -56 8 -71 40
-72 22 -2 56 -4 75 -5 27 -2 35 13 35 67 0 66 -4 70 -75 76 -71 6 -75 10 -75
75 0 65 -4 69 -70 69 -67 0 -70 -3 -70 -70z"/>
<path d="M1500 5930 c0 -67 3 -70 70 -70 67 0 70 -3 70 -70 0 -64 5 -70 60
-70 33 0 67 0 75 0 66 0 9 131 -60 136 -71 6 -75 10 -75 75 0 65 -4 69 -70 69
-67 0 -70 -3 -70 -70z"/>
<path d="M1800 5930 c0 -67 3 -70 70 -70 67 0 70 -3 70 -70 0 -69 2 -70 81
-70 121 0 115 126 -6 136 -71 6 -75 10 -75 75 0 65 -4 69 -70 69 -67 0 -70 -3
-70 -70z"/>
<path d="M2100 5930 c0 -67 3 -70 70 -70 67 0 70 -3 70 -70 0 -69 2 -70 81
-70 121 0 115 126 -6 136 -71 6 -75 10 -75 75 0 65 -4 69 -70 69 -67 0 -70 -3
-70 -70z"/>
<path d="M2400 5930 c0 -67 3 -70 70 -70 68 0 70 -2 70 -80 0 -78 -2 -80 -70
-80 -67 0 -70 -3 -70 -70 0 -112 134 -108 144 5 6 71 10 75 82 81 116 10 106
131 -11 140 -71 6 -75 10 -75 75 0 65 -4 69 -70 69 -67 0 -70 -3 -70 -70z"/>
<path d="M2700 5930 c0 -67 3 -70 70 -70 67 0 70 -3 70 -70 0 -69 2 -70 81
-70 121 0 115 126 -6 136 -71 6 -75 10 -75 75 0 65 -4 69 -70 69 -67 0 -70 -3
-70 -70z"/>
<path d="M3000 5930 c0 -67 3 -70 70 -70 68 0 70 -2 70 -80 0 -78 -2 -80 -70
-80 -67 0 -70 -3 -70 -70 0 -112 134 -108 144 5 3 42 17 76 31 78 14 1 47 3
73 5 92 4 62 130 -33 138 -71 6 -75 10 -75 75 0 65 -4 69 -70 69 -67 0 -70 -3
-70 -70z"/>
<path d="M3300 5930 c0 -67 3 -70 70 -70 66 0 70 -4 70 -69 0 -73 27 -90 116
-74 87 15 53 131 -41 139 -71 6 -75 10 -75 75 0 65 -4 69 -70 69 -67 0 -70 -3
-70 -70z"/>
<path d="M3600 5930 c0 -67 3 -70 70 -70 68 0 70 -2 70 -80 0 -78 -2 -80 -70
-80 -67 0 -70 -3 -70 -70 0 -112 134 -108 144 5 6 71 10 75 76 75 66 1 70 5
76 75 10 121 144 116 144 -5 0 -78 -2 -80 -70 -80 -67 0 -70 -3 -70 -70 0
-112 134 -108 144 5 6 71 10 75 76 75 66 0 70 4 76 75 10 121 144 116 144 -5
0 -78 -2 -80 -70 -80 -67 0 -70 -3 -70 -70 0 -112 134 -108 144 5 6 71 10 75
76 76 112 2 108 136 -5 145 -71 6 -75 10 -75 75 0 65 -4 69 -70 69 -67 0 -70
-3 -70 -70 0 -68 -2 -70 -80 -70 -78 0 -80 2 -80 70 0 67 -3 70 -70 70 -67 0
-70 -3 -70 -70 0 -68 -2 -70 -80 -70 -78 0 -80 2 -80 70 0 67 -3 70 -70 70
-67 0 -70 -3 -70 -70z"/>
<path d="M4500 5930 c0 -67 3 -70 70 -70 68 0 70 -2 70 -80 0 -78 -2 -80 -70
-80 -67 0 -70 -3 -70 -70 0 -112 134 -108 144 5 6 70 10 75 70 73 55 -1 66 7
77 55 16 76 -1 97 -82 97 -65 0 -69 4 -69 70 0 67 -3 70 -70 70 -67 0 -70 -3
-70 -70z"/>
<path d="M4800 5930 c0 -67 3 -70 70 -70 68 0 70 -2 70 -80 0 -78 -2 -80 -70
-80 -67 0 -70 -3 -70 -70 0 -112 134 -108 144 5 6 71 10 75 75 75 112 0 108
137 -4 146 -71 6 -75 10 -75 75 0 65 -4 69 -70 69 -67 0 -70 -3 -70 -70z"/>
<path d="M5100 5930 c0 -67 3 -70 70 -70 68 0 70 -2 70 -80 0 -78 -2 -80 -70
-80 -67 0 -70 -3 -70 -70 0 -112 134 -108 144 5 6 71 10 75 74 75 75 0 93 25
74 101 -11 40 -25 49 -82 49 -67 0 -70 3 -70 70 0 67 -3 70 -70 70 -67 0 -70
-3 -70 -70z"/>
<path d="M5400 5930 c0 -67 3 -70 70 -70 68 0 70 -2 70 -80 0 -78 -2 -80 -70
-80 -67 0 -70 -3 -70 -70 0 -112 134 -108 144 5 6 71 10 75 76 75 112 0 108
137 -5 146 -71 6 -75 10 -75 75 0 65 -4 69 -70 69 -67 0 -70 -3 -70 -70z"/>
<path d="M5700 5930 c0 -67 3 -70 70 -70 68 0 70 -2 70 -80 0 -78 -2 -80 -70
-80 -67 0 -70 -3 -70 -70 0 -112 134 -108 144 5 6 72 9 75 71 68 64 -6 65 -4
65 75 0 80 -1 82 -70 82 -67 0 -70 3 -70 70 0 67 -3 70 -70 70 -67 0 -70 -3
-70 -70z"/>
<path d="M20 5630 c0 -67 3 -70 70 -70 67 0 70 3 70 70 0 67 -3 70 -70 70 -67
0 -70 -3 -70 -70z"/>
<path d="M320 5630 c0 -67 3 -70 70 -70 67 0 70 3 70 70 0 67 -3 70 -70 70
-67 0 -70 -3 -70 -70z"/>
<path d="M900 5630 c0 -67 3 -70 70 -70 67 0 70 3 70 70 0 67 -3 70 -70 70
-67 0 -70 -3 -70 -70z"/>
<path d="M1200 5630 c0 -67 3 -70 70 -70 67 0 70 3 70 70 0 67 -3 70 -70 70
-67 0 -70 -3 -70 -70z"/>
<path d="M1500 5630 c0 -67 3 -70 70 -70 67 0 70 3 70 70 0 67 -3 70 -70 70
-67 0 -70 -3 -70 -70z"/>
<path d="M1800 5630 c0 -67 3 -70 70 -70 67 0 70 3 70 70 0 67 -3 70 -70 70
-67 0 -70 -3 -70 -70z"/>
<path d="M2100 5630 c0 -67 3 -70 70 -70 67 0 70 3 70 70 0 67 -3 70 -70 70
-67 0 -70 -3 -70 -70z"/>
<path d="M2700 5630 c0 -67 3 -70 70 -70 67 0 70 3 70 70 0 67 -3 70 -70 70
-67 0 -70 -3 -70 -70z"/>
<path d="M3300 5630 c0 -67 3 -70 70 -70 67 0 70 3 70 70 0 67 -3 70 -70 70
-67 0 -70 -3 -70 -70z"/>
<path d="M4 5510 c-13 -157 20 -250 89 -250 63 0 67 4 67 70 0 68 2 70 80 70
78 0 80 -2 80 -70 0 -67 3 -70 70 -70 67 0 70 3 70 70 0 67 3 70 70 70 67 0
70 -3 70 -70 0 -67 3 -70 70 -70 67 0 70 3 70 70 0 68 2 70 80 70 78 0 80 -2
80 -70 0 -67 3 -70 70 -70 67 0 70 3 70 70 0 68 2 70 80 70 78 0 80 -2 80 -70
0 -67 3 -70 70 -70 67 0 70 3 70 70 0 68 2 70 80 70 78 0 80 -2 80 -70 0 -67
3 -70 70 -70 67 0 70 3 70 70 0 68 2 70 80 70 78 0 80 -2 80 -70 0 -67 3 -70
70 -70 67 0 70 3 70 70 0 68 2 70 80 70 78 0 80 -2 80 -70 0 -67 3 -70 70 -70
67 0 70 3 70 70 0 68 2 70 80 70 78 0 80 -2 80 -70 0 -67 3 -70 70 -70 67 0
70 3 70 70 0 68 2 70 80 70 78 0 80 -2 80 -70 0 -67 3 -70 70 -70 67 0 70 3
70 70 0 68 2 70 80 70 78 0 80 -2 80 -70 0 -67 3 -70 70 -70 67 0 70 3 70 70
0 68 2 70 80 70 78 0 80 -2 80 -70 0 -67 3 -70 70 -70 67 0 70 3 70 70 0 68 2
70 80 70 78 0 80 -2 80 -70 0 -67 3 -70 70 -70 67 0 70 3 70 70 0 68 2 70 80
70 78 0 80 -2 80 -70 0 -67 3 -70 70 -70 67 0 70 3 70 70 0 68 2 70 80 70 78
0 80 -2 80 -70 0 -67 3 -70 70 -70 67 0 70 3 70 70 0 68 2 70 80 70 78 0 80
-2 80 -70 0 -67 3 -70 70 -70 67 0 70 3 70 70 0 68 2 70 80 70 78 0 80 -2 80
-70 0 -67 3 -70 70 -70 67 0 70 3 70 70 0 68 2 70 80 70 78 0 80 -2 80 -70 0
-67 3 -70 70 -70 67 0 70 3 70 70 0 68 2 70 80 70 78 0 80 -2 80 -70 0 -67 3
-70 70 -70 67 0 70 3 70 70 0 68 2 70 80 70 78 0 80 -2 80 -70 0 -67 3 -70 70
-70 67 0 70 3 70 70 0 67 3 70 70 70 67 0 70 3 70 70 0 67 -3 70 -70 70 -67 0
-70 -3 -70 -70 0 -67 -3 -70 -70 -70 -67 0 -70 3 -70 70 0 68 -2 70 -80 70
-78 0 -80 -2 -80 -70 0 -67 -3 -70 -70 -70 -67 0 -70 3 -70 70 0 68 -2 70 -80
70 -78 0 -80 -2 -80 -70 0 -67 -3 -70 -70 -70 -68 0 -87 32 -72 125 1 8 -34
15 -78 15 -78 0 -80 -2 -80 -70 0 -67 -3 -70 -70 -70 -67 0 -70 3 -70 70 0 68
-2 70 -80 70 -78 0 -80 -2 -80 -70 0 -67 -3 -70 -70 -70 -67 0 -70 3 -70 70 0
68 -2 70 -80 70 -78 0 -80 -2 -80 -70 0 -67 -3 -70 -70 -70 -67 0 -70 3 -70
70 0 68 -2 70 -80 70 -78 0 -80 -2 -80 -70 0 -67 -3 -70 -70 -70 -67 0 -70 3
-70 70 0 68 -2 70 -80 70 -78 0 -80 -2 -80 -70 0 -67 -3 -70 -70 -70 -67 0
-70 3 -70 70 0 68 -2 70 -80 70 -78 0 -80 -2 -80 -70 0 -67 -3 -70 -70 -70
-67 0 -70 3 -70 70 0 68 -2 70 -80 70 -78 0 -80 -2 -80 -70 0 -67 -3 -70 -70
-70 -67 0 -70 3 -70 70 0 68 -2 70 -80 70 -78 0 -80 -2 -80 -70 0 -67 -3 -70
-70 -70 -67 0 -70 3 -70 70 0 68 -2 70 -80 70 -78 0 -80 -2 -80 -70 0 -67 -3
-70 -70 -70 -67 0 -70 3 -70 70 0 68 -2 70 -80 70 -78 0 -80 -2 -80 -70 0 -67
-3 -70 -70 -70 -67 0 -70 3 -70 70 0 68 -2 70 -80 70 -78 0 -80 -2 -80 -70 0
-67 -3 -70 -70 -70 -71 0 -80 14 -71 105 3 28 -12 35 -78 35 -79 0 -81 -1 -81
-70 0 -67 -3 -70 -70 -70 -67 0 -70 3 -70 70 0 68 -2 70 -80 70 -78 0 -80 -2
-80 -70 0 -67 -3 -70 -70 -70 -67 0 -70 3 -70 70 0 68 -2 70 -80 70 -78 0 -80
-2 -80 -70 0 -67 -3 -70 -70 -70 -67 0 -70 3 -70 70 0 68 -2 70 -80 70 -78 0
-80 -2 -80 -70 0 -67 -3 -70 -70 -70 -67 0 -70 3 -70 70 0 67 -3 70 -70 70
-67 0 -70 -3 -70 -70 0 -67 -3 -70 -70 -70 -67 0 -70 3 -70 70 0 68 -2 70 -80
70 -78 0 -80 -2 -80 -70 0 -112 -134 -107 -145 5 -5 41 -10 57 -11 35z"/>
<path d="M4 5210 c-13 -157 20 -250 89 -250 63 0 67 4 67 70 0 68 2 70 80 70
78 0 80 -2 80 -70 0 -67 3 -70 70 -70 67 0 70 3 70 70 0 67 3 70 70 70 67 0
70 -3 70 -70 0 -67 3 -70 70 -70 67 0 70 3 70 70 0 68 2 70 80 70 78 0 80 -2
80 -70 0 -67 3 -70 70 -70 67 0 70 3 70 70 0 68 2 70 80 70 78 0 80 -2 80 -70
0 -67 3 -70 70 -70 67 0 70 3 70 70 0 68 2 70 80 70 78 0 80 -2 80 -70 0 -67
3 -70 70 -70 67 0 70 3 70 70 0 68 2 70 80 70 78 0 80 -2 80 -70 0 -67 3 -70
70 -70 67 0 70 3 70 70 0 68 2 70 80 70 78 0 80 -2 80 -70 0 -67 3 -70 70 -70
66 0 70 4 70 69 0 65 4 69 75 75 119 10 124 136 5 136 -78 0 -80 -2 -80 -70 0
-67 -3 -70 -70 -70 -67 0 -70 3 -70 70 0 68 -2 70 -80 70 -78 0 -80 -2 -80
-70 0 -67 -3 -70 -70 -70 -67 0 -70 3 -70 70 0 68 -2 70 -80 70 -78 0 -80 -2
-80 -70 0 -67 -3 -70 -70 -70 -67 0 -70 3 -70 70 0 68 -2 70 -80 70 -78 0 -80
-2 -80 -70 0 -67 -3 -70 -70 -70 -67 0 -70 3 -70 70 0 68 -2 70 -80 70 -78 0
-80 -2 -80 -70 0 -67 -3 -70 -70 -70 -67 0 -70 3 -70 70 0 68 -2 70 -80 70
-78 0 -80 -2 -80 -70 0 -67 -3 -70 -70 -70 -67 0 -70 3 -70 70 0 67 -3 70 -70
70 -67 0 -70 -3 -70 -70 0 -67 -3 -70 -70 -70 -67 0 -70 3 -70 70 0 68 -2 70
-80 70 -78 0 -80 -2 -80 -70 0 -112 -134 -107 -145 5 -5 41 -10 57 -11 35z"/>
<path d="M2540 5170 c0 -67 -3 -70 -70 -70 -67 0 -70 -3 -70 -70 0 -67 3 -70
70 -70 67 0 70 3 70 70 0 68 2 70 80 70 78 0 80 -2 80 -70 0 -67 3 -70 70 -70
67 0 70 3 70 70 0 68 2 70 80 70 78 0 80 -2 80 -70 0 -67 3 -70 70 -70 67 0
70 3 70 70 0 68 2 70 80 70 78 0 80 -2 80 -70 0 -67 3 -70 70 -70 67 0 70 3
70 70 0 68 2 70 80 70 78 0 80 -2 80 -70 0 -67 3 -70 70 -70 67 0 70 3 70 70
0 68 2 70 80 70 78 0 80 -2 80 -70 0 -67 3 -70 70 -70 67 0 70 3 70 70 0 68 2
70 80 70 78 0 80 -2 80 -70 0 -67 3 -70 70 -70 67 0 70 3 70 70 0 68 2 70 80
70 78 0 80 -2 80 -70 0 -67 3 -70 70 -70 67 0 70 3 70 70 0 68 2 70 80 70 78
0 80 -2 80 -70 0 -67 3 -70 70 -70 67 0 70 3 70 70 0 68 2 70 80 70 78 0 80
-2 80 -70 0 -67 3 -70 70 -70 67 0 70 3 70 70 0 68 2 70 80 70 78 0 80 -2 80
-70 0 -67 3 -70 70 -70 67 0 70 3 70 70 0 68 2 70 80 70 78 0 80 -2 80 -70 0
-67 3 -70 70 -70 67 0 70 3 70 70 0 67 3 70 70 70 67 0 70 3 70 70 0 67 -3 70
-70 70 -67 0 -70 -3 -70 -70 0 -67 -3 -70 -70 -70 -67 0 -70 3 -70 70 0 68 -2
70 -80 70 -78 0 -80 -2 -80 -70 0 -67 -3 -70 -70 -70 -67 0 -70 3 -70 70 0 68
-2 70 -80 70 -78 0 -80 -2 -80 -70 0 -67 -3 -70 -70 -70 -70 0 -84 22 -71 115
2 16 -25 25 -78 25 -79 0 -81 -2 -81 -70 0 -104 -134 -109 -144 -5 -10 106
-156 112 -156 6 0 -68 -3 -71 -70 -71 -67 0 -70 3 -70 70 0 68 -2 70 -80 70
-78 0 -80 -2 -80 -70 0 -67 -3 -70 -70 -70 -67 0 -70 3 -70 70 0 68 -2 70 -80
70 -78 0 -80 -2 -80 -70 0 -67 -3 -70 -70 -70 -71 0 -80 14 -71 105 3 28 -12
35 -78 35 -79 0 -81 -1 -81 -70 0 -67 -3 -70 -70 -70 -67 0 -70 3 -70 70 0 68
-2 70 -80 70 -78 0 -80 -2 -80 -70 0 -67 -3 -70 -70 -70 -67 0 -70 3 -70 70 0
68 -2 70 -80 70 -78 0 -80 -1 -80 -71 0 -70 -1 -71 -75 -65 -71 6 -75 10 -71
71 3 63 1 65 -75 65 -77 0 -79 -2 -79 -70 0 -67 -3 -70 -70 -70 -67 0 -70 3
-70 70 0 68 -2 70 -80 70 -78 0 -80 -2 -80 -70z"/>
<path d="M4 4910 c-13 -157 20 -250 89 -250 63 0 67 4 67 70 0 68 2 70 80 70
78 0 80 -2 80 -70 0 -67 3 -70 70 -70 67 0 70 3 70 70 0 67 3 70 70 70 67 0
70 -3 70 -70 0 -67 3 -70 70 -70 67 0 70 3 70 70 0 68 2 70 80 70 78 0 80 -2
80 -70 0 -67 3 -70 70 -70 67 0 70 3 70 70 0 68 2 70 80 70 78 0 80 -2 80 -70
0 -67 3 -70 70 -70 67 0 70 3 70 70 0 68 2 70 80 70 78 0 80 -2 80 -70 0 -67
3 -70 70 -70 67 0 70 3 70 70 0 68 2 70 80 70 78 0 80 -2 80 -70 0 -67 3 -70
70 -70 67 0 70 3 70 70 0 68 2 70 80 70 78 0 80 -2 80 -70 0 -67 3 -70 70 -70
67 0 70 3 70 70 0 68 2 70 80 70 78 0 80 -2 80 -70 0 -67 3 -70 70 -70 67 0
70 3 70 70 0 68 2 70 80 70 78 0 80 -2 80 -70 0 -67 3 -70 70 -70 67 0 70 3
70 70 0 68 2 70 80 70 78 0 80 -2 80 -70 0 -67 3 -70 70 -70 67 0 70 3 70 70
0 68 2 70 80 70 78 0 80 -2 80 -70 0 -67 3 -70 70 -70 67 0 70 3 70 70 0 68 2
70 80 70 78 0 80 -2 80 -70 0 -67 3 -70 70 -70 67 0 70 3 70 70 0 68 2 70 80
70 78 0 80 -2 80 -70 0 -67 3 -70 70 -70 67 0 70 3 70 70 0 68 2 70 80 70 78
0 80 -2 80 -70 0 -67 3 -70 70 -70 67 0 70 3 70 70 0 68 2 70 80 70 78 0 80
-2 80 -70 0 -67 3 -70 70 -70 67 0 70 3 70 70 0 68 2 70 80 70 78 0 80 -2 80
-70 0 -67 3 -70 70 -70 67 0 70 3 70 70 0 68 2 70 80 70 78 0 80 -2 80 -70 0
-67 3 -70 70 -70 67 0 70 3 70 70 0 68 2 70 80 70 78 0 80 -2 80 -70 0 -67 3
-70 70 -70 67 0 70 3 70 70 0 68 2 70 80 70 78 0 80 -2 80 -70 0 -67 3 -70 70
-70 67 0 70 3 70 70 0 67 3 70 70 70 67 0 70 3 70 70 0 67 -3 70 -70 70 -67 0
-70 -3 -70 -70 0 -67 -3 -70 -70 -70 -67 0 -70 3 -70 70 0 68 -2 70 -80 70
-78 0 -80 -2 -80 -70 0 -67 -3 -70 -70 -70 -67 0 -70 3 -70 70 0 68 -2 70 -80
70 -78 0 -80 -2 -80 -70 0 -67 -3 -70 -70 -70 -70 0 -84 22 -71 115 2 16 -25
25 -78 25 -79 0 -81 -2 -81 -70 0 -67 -3 -70 -70 -70 -67 0 -70 3 -70 70 0 68
-2 70 -80 70 -78 0 -80 -2 -80 -70 0 -67 -3 -70 -70 -70 -67 0 -70 3 -70 70 0
68 -2 70 -80 70 -78 0 -80 -2 -80 -70 0 -67 -3 -70 -70 -70 -67 0 -70 3 -70
70 0 68 -2 70 -80 70 -78 0 -80 -2 -80 -70 0 -67 -3 -70 -70 -70 -67 0 -70 3
-70 70 0 68 -2 70 -80 70 -78 0 -80 -2 -80 -70 0 -67 -3 -70 -70 -70 -67 0
-70 3 -70 70 0 68 -2 70 -80 70 -78 0 -80 -2 -80 -70 0 -67 -3 -70 -70 -70
-67 0 -70 3 -70 70 0 68 -2 70 -80 70 -78 0 -80 -2 -80 -70 0 -67 -3 -70 -70
-70 -67 0 -70 3 -70 70 0 68 -2 70 -80 70 -78 0 -80 -2 -80 -70 0 -67 -3 -70
-70 -70 -67 0 -70 3 -70 70 0 68 -2 70 -80 70 -78 0 -80 -2 -80 -70 0 -67 -3
-70 -70 -70 -67 0 -70 3 -70 70 0 68 -2 70 -80 70 -78 0 -80 -2 -80 -70 0 -67
-3 -70 -70 -70 -67 0 -70 3 -70 70 0 68 -2 70 -80 70 -78 0 -80 -2 -80 -70 0
-67 -3 -70 -70 -70 -67 0 -70 3 -70 70 0 68 -2 70 -80 70 -78 0 -80 -2 -80
-70 0 -67 -3 -70 -70 -70 -67 0 -70 3 -70 70 0 68 -2 70 -80 70 -78 0 -80 -2
-80 -70 0 -67 -3 -70 -70 -70 -67 0 -70 3 -70 70 0 68 -2 70 -80 70 -78 0 -80
-2 -80 -70 0 -67 -3 -70 -70 -70 -67 0 -70 3 -70 70 0 68 -2 70 -80 70 -78 0
-80 -2 -80 -70 0 -67 -3 -70 -70 -70 -67 0 -70 3 -70 70 0 67 -3 70 -70 70
-67 0 -70 -3 -70 -70 0 -67 -3 -70 -70 -70 -67 0 -70 3 -70 70 0 68 -2 70 -80
70 -78 0 -80 -2 -80 -70 0 -112 -134 -107 -145 5 -5 41 -10 57 -11 35z"/>
<path d="M4 4610 c-13 -157 20 -250 89 -250 63 0 67 4 67 70 0 68 2 70 80 70
78 0 80 -2 80 -70 0 -67 3 -70 70 -70 67 0 70 3 70 70 0 67 3 70 70 70 67 0
70 -3 70 -70 0 -67 3 -70 70 -70 67 0 70 3 70 70 0 68 2 70 80 70 78 0 80 -2
80 -70 0 -67 3 -70 70 -70 67 0 70 3 70 70 0 68 2 70 80 70 78 0 80 -2 80 -70
0 -67 3 -70 70 -70 67 0 70 3 70 70 0 68 2 70 80 70 78 0 80 -2 80 -70 0 -67
3 -70 70 -70 67 0 70 3 70 70 0 68 2 70 80 70 78 0 80 -2 80 -70 0 -67 3 -70
70 -70 67 0 70 3 70 70 0 68 2 70 80 70 78 0 80 -2 80 -70 0 -67 3 -70 70 -70
66 0 70 4 70 69 0 65 4 69 75 75 121 10 127 136 6 136 -79 0 -81 -1 -81 -70 0
-67 -3 -70 -70 -70 -67 0 -70 3 -70 70 0 68 -2 70 -80 70 -78 0 -80 -2 -80
-70 0 -67 -3 -70 -70 -70 -67 0 -70 3 -70 70 0 68 -2 70 -80 70 -78 0 -80 -2
-80 -70 0 -67 -3 -70 -70 -70 -67 0 -70 3 -70 70 0 68 -2 70 -80 70 -78 0 -80
-2 -80 -70 0 -67 -3 -70 -70 -70 -68 0 -87 32 -72 125 1 8 -34 15 -78 15 -78
0 -80 -2 -80 -70 0 -67 -3 -70 -70 -70 -67 0 -70 3 -70 70 0 68 -2 70 -80 70
-78 0 -80 -2 -80 -70 0 -67 -3 -70 -70 -70 -67 0 -70 3 -70 70 0 67 -3 70 -70
70 -67 0 -70 -3 -70 -70 0 -67 -3 -70 -70 -70 -67 0 -70 3 -70 70 0 68 -2 70
-80 70 -78 0 -80 -2 -80 -70 0 -112 -134 -107 -145 5 -5 41 -10 57 -11 35z"/>
<path d="M2540 4570 c0 -67 -3 -70 -70 -70 -67 0 -70 -3 -70 -70 0 -67 3 -70
70 -70 67 0 70 3 70 70 0 68 2 70 80 70 78 0 80 -2 80 -70 0 -67 3 -70 70 -70
67 0 70 3 70 70 0 68 2 70 80 70 78 0 80 -2 80 -70 0 -67 3 -70 70 -70 67 0
70 3 70 70 0 68 2 70 80 70 78 0 80 -2 80 -70 0 -67 3 -70 70 -70 67 0 70 3
70 70 0 68 2 70 80 70 78 0 80 -2 80 -70 0 -67 3 -70 70 -70 67 0 70 3 70 70
0 68 2 70 80 70 78 0 80 -2 80 -70 0 -67 3 -70 70 -70 67 0 70 3 70 70 0 68 2
70 80 70 78 0 80 -2 80 -70 0 -67 3 -70 70 -70 67 0 70 3 70 70 0 68 2 70 80
70 78 0 80 -2 80 -70 0 -67 3 -70 70 -70 66 0 70 4 70 69 0 65 4 69 75 75 121
10 127 136 6 136 -79 0 -81 -1 -81 -70 0 -67 -3 -70 -70 -70 -67 0 -70 3 -70
70 0 68 -2 70 -80 70 -78 0 -80 -2 -80 -70 0 -104 -134 -109 -144 -5 -10 106
-156 112 -156 6 0 -68 -3 -71 -70 -71 -67 0 -70 3 -70 70 0 68 -2 70 -80 70
-78 0 -80 -2 -80 -70 0 -67 -3 -70 -70 -70 -67 0 -70 3 -70 70 0 68 -2 70 -80
70 -78 0 -80 -2 -80 -70 0 -67 -3 -70 -70 -70 -67 0 -70 3 -70 70 0 68 -2 70
-80 70 -78 0 -80 -2 -80 -70 0 -67 -3 -70 -70 -70 -71 0 -80 14 -71 105 3 28
-12 35 -78 35 -79 0 -81 -1 -81 -70 0 -67 -3 -70 -70 -70 -67 0 -70 3 -70 70
0 68 -2 70 -80 70 -78 0 -80 -2 -80 -70z"/>
<path d="M4940 4570 c0 -67 -3 -70 -70 -70 -67 0 -70 -3 -70 -70 0 -67 3 -70
70 -70 67 0 70 3 70 70 0 68 2 70 80 70 78 0 80 -2 80 -70 0 -67 3 -70 70 -70
67 0 70 3 70 70 0 68 2 70 80 70 78 0 80 -2 80 -70 0 -67 3 -70 70 -70 67 0
70 3 70 70 0 68 2 70 80 70 78 0 80 -2 80 -70 0 -67 3 -70 70 -70 67 0 70 3
70 70 0 67 3 70 70 70 67 0 70 3 70 70 0 67 -3 70 -70 70 -67 0 -70 -3 -70
-70 0 -67 -3 -70 -70 -70 -67 0 -70 3 -70 70 0 68 -2 70 -80 70 -78 0 -80 -2
-80 -70 0 -67 -3 -70 -70 -70 -67 0 -70 3 -70 70 0 68 -2 70 -80 70 -78 0 -80
-2 -80 -70 0 -67 -3 -70 -70 -70 -67 0 -70 3 -70 70 0 68 -2 70 -80 70 -78 0
-80 -2 -80 -70z"/>
<path d="M4 4310 c-13 -157 20 -250 89 -250 63 0 67 4 67 70 0 68 2 70 80 70
78 0 80 -2 80 -70 0 -67 3 -70 70 -70 66 0 70 4 70 69 0 63 5 69 65 75 105 10
111 136 6 136 -68 0 -71 -3 -71 -70 0 -67 -3 -70 -70 -70 -67 0 -70 3 -70 70
0 68 -2 70 -80 70 -78 0 -80 -2 -80 -70 0 -112 -134 -107 -145 5 -5 41 -10 57
-11 35z"/>
<path d="M740 4270 c0 -67 -3 -70 -70 -70 -66 0 -70 -4 -70 -68 l0 -68 70 21
c54 17 70 32 70 68 0 40 10 47 68 47 65 0 111 73 79 125 -34 55 -147 13 -147
-55z"/>
<path d="M1040 4270 c0 -67 -3 -70 -70 -70 -49 0 -70 -9 -70 -30 0 -21 21 -30
70 -30 49 0 70 9 70 30 0 21 21 30 68 30 69 0 92 25 92 102 0 31 -14 38 -80
38 -78 0 -80 -2 -80 -70z"/>
<path d="M1340 4270 c0 -67 -3 -70 -70 -70 -87 0 -108 -105 -25 -127 83 -23
95 -15 95 57 0 68 2 70 80 70 78 0 80 -2 80 -70 0 -67 3 -70 70 -70 67 0 70 3
70 70 0 68 2 70 80 70 78 0 80 -2 80 -70 0 -67 3 -70 70 -70 67 0 70 3 70 70
0 68 2 70 80 70 78 0 80 -2 80 -70 0 -67 3 -70 70 -70 67 0 70 3 70 70 0 68 2
70 80 70 78 0 80 -2 80 -70 0 -67 3 -70 70 -70 67 0 70 3 70 70 0 68 2 70 80
70 78 0 80 -2 80 -70 0 -67 3 -70 70 -70 67 0 70 3 70 70 0 68 2 70 80 70 78
0 80 -2 80 -70 0 -67 3 -70 70 -70 67 0 70 3 70 70 0 68 2 70 80 70 78 0 80
-2 80 -70 0 -67 3 -70 70 -70 67 0 70 3 70 70 0 68 2 70 80 70 78 0 80 -2 80
-70 0 -67 3 -70 70 -70 67 0 70 3 70 70 0 68 2 70 80 70 78 0 80 -2 80 -70 0
-67 3 -70 70 -70 67 0 70 3 70 70 0 68 2 70 80 70 78 0 80 -2 80 -70 0 -67 3
-70 70 -70 67 0 70 3 70 70 0 68 2 70 80 70 78 0 80 -2 80 -70 0 -67 3 -70 70
-70 67 0 70 3 70 70 0 68 2 70 80 70 78 0 80 -2 80 -70 0 -67 3 -70 70 -70 67
0 70 3 70 70 0 68 2 70 80 70 78 0 80 -2 80 -70 0 -67 3 -70 70 -70 67 0 70 3
70 70 0 68 2 70 80 70 78 0 80 -2 80 -70 0 -67 3 -70 70 -70 67 0 70 3 70 70
0 68 2 70 80 70 78 0 80 -2 80 -70 0 -67 3 -70 70 -70 67 0 70 3 70 70 0 67 3
70 70 70 67 0 70 3 70 70 0 67 -3 70 -70 70 -67 0 -70 -3 -70 -70 0 -67 -3
-70 -70 -70 -67 0 -70 3 -70 70 0 68 -2 70 -80 70 -78 0 -80 -2 -80 -70 0 -67
-3 -70 -70 -70 -67 0 -70 3 -70 70 0 68 -2 70 -80 70 -78 0 -80 -2 -80 -70 0
-67 -3 -70 -70 -70 -67 0 -70 3 -70 70 0 68 -2 70 -80 70 -78 0 -80 -2 -80
-70 0 -104 -134 -109 -144 -5 -10 106 -156 112 -156 6 0 -68 -3 -71 -70 -71
-67 0 -70 3 -70 70 0 68 -2 70 -80 70 -78 0 -80 -2 -80 -70 0 -67 -3 -70 -70
-70 -67 0 -70 3 -70 70 0 68 -2 70 -80 70 -78 0 -80 -2 -80 -70 0 -67 -3 -70
-70 -70 -70 0 -84 22 -71 115 2 16 -25 25 -78 25 -79 0 -81 -2 -81 -70 0 -67
-3 -70 -70 -70 -68 0 -87 32 -72 125 1 8 -34 15 -78 15 -78 0 -80 -2 -80 -70
0 -67 -3 -70 -70 -70 -67 0 -70 3 -70 70 0 68 -2 70 -80 70 -78 0 -80 -2 -80
-70 0 -67 -3 -70 -70 -70 -67 0 -70 3 -70 70 0 68 -2 70 -80 70 -78 0 -80 -2
-80 -70 0 -67 -3 -70 -70 -70 -70 0 -84 22 -71 115 2 16 -25 25 -78 25 -79 0
-81 -2 -81 -70 0 -67 -3 -70 -70 -70 -68 0 -87 32 -72 125 1 8 -34 15 -78 15
-78 0 -80 -2 -80 -70 0 -67 -3 -70 -70 -70 -67 0 -70 3 -70 70 0 68 -2 70 -80
70 -78 0 -80 -2 -80 -70 0 -67 -3 -70 -70 -70 -67 0 -70 3 -70 70 0 68 -2 70
-80 70 -78 0 -80 -2 -80 -70 0 -67 -3 -70 -70 -70 -67 0 -70 3 -70 70 0 68 -2
70 -80 70 -78 0 -80 -2 -80 -70z"/>
<path d="M4 4010 c-13 -157 20 -250 89 -250 64 0 67 4 67 73 l0 72 98 -9 c81
-8 94 -5 73 16 -14 14 -21 49 -16 77 9 48 5 51 -73 51 -80 0 -82 -1 -82 -70 0
-112 -134 -107 -145 5 -5 41 -10 57 -11 35z"/>
<path d="M1381 4014 c17 -13 46 -46 65 -73 l34 -50 0 75 c0 70 -3 74 -65 73
-55 0 -60 -4 -34 -25z"/>
<path d="M1640 3970 c0 -67 -3 -70 -72 -70 -61 0 -70 -5 -58 -35 8 -19 19 -51
25 -70 20 -72 105 -43 105 35 0 68 2 70 80 70 78 0 80 -2 80 -70 0 -67 3 -70
70 -70 67 0 70 3 70 70 0 68 2 70 80 70 78 0 80 -2 80 -70 0 -67 3 -70 70 -70
67 0 70 3 70 70 0 68 2 70 80 70 78 0 80 -2 80 -70 0 -67 3 -70 70 -70 67 0
70 3 70 70 0 68 2 70 80 70 78 0 80 -2 80 -70 0 -67 3 -70 70 -70 67 0 70 3
70 70 0 68 2 70 80 70 78 0 80 -2 80 -70 0 -67 3 -70 70 -70 67 0 70 3 70 70
0 68 2 70 80 70 78 0 80 -2 80 -70 0 -67 3 -70 70 -70 67 0 70 3 70 70 0 68 2
70 80 70 78 0 80 -2 80 -70 0 -67 3 -70 70 -70 67 0 70 3 70 70 0 68 2 70 80
70 78 0 80 -2 80 -70 0 -67 3 -70 70 -70 67 0 70 3 70 70 0 68 2 70 80 70 78
0 80 -2 80 -70 0 -67 3 -70 70 -70 67 0 70 3 70 70 0 67 3 70 70 70 67 0 70 3
70 70 0 67 -3 70 -70 70 -67 0 -70 -3 -70 -70 0 -67 -3 -70 -70 -70 -67 0 -70
3 -70 70 0 68 -2 70 -80 70 -78 0 -80 -2 -80 -70 0 -67 -3 -70 -70 -70 -67 0
-70 3 -70 70 0 68 -2 70 -80 70 -78 0 -80 -2 -80 -70 0 -67 -3 -70 -70 -70
-67 0 -70 3 -70 70 0 68 -2 70 -80 70 -78 0 -80 -2 -80 -70 0 -67 -3 -70 -70
-70 -67 0 -70 3 -70 70 0 68 -2 70 -80 70 -78 0 -80 -2 -80 -70 0 -104 -134
-109 -144 -5 -10 106 -156 112 -156 6 0 -68 -3 -71 -70 -71 -67 0 -70 3 -70
70 0 68 -2 70 -80 70 -78 0 -80 -2 -80 -70 0 -67 -3 -70 -70 -70 -67 0 -70 3
-70 70 0 68 -2 70 -80 70 -78 0 -80 -2 -80 -70 0 -67 -3 -70 -70 -70 -67 0
-70 3 -70 70 0 68 -2 70 -80 70 -78 0 -80 -2 -80 -70 0 -67 -3 -70 -70 -70
-67 0 -70 3 -70 70 0 68 -2 70 -80 70 -78 0 -80 -2 -80 -70z"/>
<path d="M4940 4002 c0 -77 23 -102 92 -102 64 0 68 -4 68 -70 0 -67 3 -70 70
-70 66 0 70 4 70 69 0 65 4 69 75 75 121 10 127 136 6 136 -79 0 -81 -1 -81
-70 0 -67 -3 -70 -70 -70 -67 0 -70 3 -70 70 0 68 -2 70 -80 70 -66 0 -80 -7
-80 -38z"/>
<path d="M5540 3970 c0 -67 -3 -70 -70 -70 -67 0 -70 -3 -70 -70 0 -67 3 -70
70 -70 67 0 70 3 70 70 0 68 2 70 80 70 78 0 80 -2 80 -70 0 -67 3 -70 70 -70
67 0 70 3 70 70 0 67 3 70 70 70 67 0 70 3 70 70 0 67 -3 70 -70 70 -67 0 -70
-3 -70 -70 0 -67 -3 -70 -70 -70 -67 0 -70 3 -70 70 0 68 -2 70 -80 70 -78 0
-80 -2 -80 -70z"/>
<path d="M774 3959 c-517 -130 -711 -755 -354 -1145 434 -475 1180 -203 1180
430 l0 96 -330 0 -330 0 0 -101 0 -101 230 6 c253 7 255 5 209 -118 -128 -337
-677 -346 -871 -14 -282 481 303 998 753 666 25 -18 45 -11 100 41 l69 63 -50
42 c-145 121 -419 182 -606 135z"/>
<path d="M4628 3922 c-4 -5 -8 -304 -8 -665 l0 -657 100 0 101 0 -6 663 -5
662 -87 3 c-47 1 -90 -2 -95 -6z"/>
<path d="M4 3710 c-7 -83 22 -250 44 -249 12 0 37 32 54 70 l33 69 -56 0 c-51
0 -57 8 -64 75 -5 41 -10 57 -11 35z"/>
<path d="M1640 3670 c0 -67 -3 -70 -70 -70 -64 0 -70 -5 -70 -59 0 -43 8 -57
28 -49 15 6 34 1 41 -11 30 -48 71 -20 71 49 0 67 3 70 70 70 43 0 70 10 70
25 0 14 6 45 13 70 11 41 5 45 -71 45 -80 0 -82 -1 -82 -70z"/>
<path d="M1940 3683 c0 -72 7 -78 80 -67 98 14 89 124 -10 124 -64 0 -70 -5
-70 -57z"/>
<path d="M2240 3694 c0 -59 35 -94 94 -94 39 0 46 10 46 70 0 67 -3 70 -70 70
-60 0 -70 -7 -70 -46z"/>
<path d="M2540 3670 c0 -67 -3 -70 -70 -70 -38 0 -70 -9 -70 -20 0 -11 9 -20
21 -20 11 0 43 -22 70 -49 l49 -49 0 69 c0 67 2 69 80 69 76 0 80 -3 80 -61
l0 -60 65 45 c36 25 70 52 75 59 6 7 37 16 70 20 101 12 102 137 1 137 -68 0
-71 -3 -71 -70 0 -67 -3 -70 -70 -70 -67 0 -70 3 -70 70 0 68 -2 70 -80 70
-78 0 -80 -2 -80 -70z"/>
<path d="M3140 3692 c0 -44 20 -59 115 -82 16 -4 25 17 25 62 0 64 -4 68 -70
68 -60 0 -70 -7 -70 -48z"/>
<path d="M3440 3670 c0 -65 -4 -70 -65 -71 l-65 -1 60 -26 c50 -21 61 -21 66
1 17 70 164 31 164 -43 0 -54 8 -70 35 -69 53 1 105 48 105 96 0 36 12 43 70
43 67 0 70 3 70 70 0 67 -3 70 -70 70 -67 0 -70 -3 -70 -70 0 -67 -3 -70 -70
-70 -67 0 -70 3 -70 70 0 68 -2 70 -80 70 -78 0 -80 -2 -80 -70z"/>
<path d="M4040 3690 c0 -27 11 -50 25 -50 14 0 45 -6 70 -13 40 -10 45 -4 45
51 0 58 -5 62 -70 62 -61 0 -70 -6 -70 -50z"/>
<path d="M4340 3683 c0 -100 59 -101 111 -1 l30 58 -70 0 c-65 0 -71 -5 -71
-57z"/>
<path d="M4976 3707 c10 -18 14 -49 9 -70 -8 -29 2 -37 43 -37 46 0 52 8 52
70 0 65 -5 70 -61 70 -51 0 -58 -6 -43 -33z"/>
<path d="M5240 3688 c0 -41 8 -51 37 -43 21 5 52 1 70 -9 27 -15 33 -8 33 43
0 56 -5 61 -70 61 -62 0 -70 -6 -70 -52z"/>
<path d="M5537 3665 l-7 -75 73 7 c55 5 76 18 85 50 22 82 14 93 -66 93 -75 0
-78 -2 -85 -75z"/>
<path d="M5840 3670 c0 -67 -3 -70 -70 -70 -67 0 -70 -3 -70 -70 0 -67 3 -70
70 -70 67 0 70 3 70 70 0 67 3 70 70 70 67 0 70 3 70 70 0 67 -3 70 -70 70
-67 0 -70 -3 -70 -70z"/>
<path d="M900 3530 c0 -77 8 -81 86 -45 85 40 75 115 -16 115 -67 0 -70 -3
-70 -70z"/>
<path d="M694 3509 c-35 -48 -35 -49 5 -49 30 0 41 13 41 50 0 61 -1 61 -46
-1z"/>
<path d="M1981 3454 c-107 -34 -253 -187 -281 -294 -121 -451 423 -778 750
-450 335 334 -15 889 -469 744z m321 -232 c208 -207 5 -557 -261 -450 -116 46
-168 139 -157 279 20 238 255 335 418 171z"/>
<path d="M2946 3448 c-219 -81 -345 -367 -255 -583 193 -462 867 -341 869 158
1 318 -314 536 -614 425z m323 -210 c228 -200 27 -576 -249 -466 -115 46 -167
140 -156 279 19 226 243 330 405 187z"/>
<path d="M3930 3451 c-330 -120 -382 -602 -86 -803 115 -78 317 -84 414 -12
l62 45 0 -75 c0 -269 -327 -364 -456 -133 -17 30 -26 31 -96 3 -107 -43 -106
-66 8 -175 179 -173 431 -179 597 -13 117 116 127 173 127 704 l0 463 -90 -3
c-71 -1 -90 -9 -90 -37 0 -45 -9 -44 -79 7 -72 54 -208 67 -311 29z m273 -182
c83 -43 145 -184 127 -290 -55 -326 -489 -288 -490 43 0 209 188 337 363 247z"/>
<path d="M4060 3038 c0 -25 14 -38 41 -38 28 0 40 11 35 33 -9 48 -76 53 -76
5z"/>
<path d="M5144 3429 c-411 -208 -259 -848 202 -849 120 0 193 27 309 113 82
62 81 74 -8 135 l-73 50 -38 -48 c-82 -105 -292 -103 -375 4 -23 28 -39 54
-36 56 3 3 136 57 295 120 353 141 329 120 264 239 -115 212 -334 285 -540
180z m313 -161 c67 -47 50 -64 -158 -149 -226 -94 -220 -93 -200 -22 51 178
227 262 358 171z"/>
<path d="M740 3370 c0 -67 -3 -70 -70 -70 -99 0 -94 -118 6 -149 49 -15 63
-31 68 -80 7 -73 137 -109 135 -37 -1 54 -48 106 -96 106 -37 0 -43 12 -43 80
0 67 7 80 40 80 22 0 40 12 40 28 0 15 14 38 30 52 48 40 35 60 -40 60 -67 0
-70 -3 -70 -70z"/>
<path d="M5837 3365 l-7 -75 75 7 c111 11 117 143 7 143 -64 0 -68 -4 -75 -75z"/>
<path d="M11 3158 c-8 -78 -9 -147 -2 -153 6 -7 11 18 11 54 0 40 14 77 35 93
21 16 25 27 10 27 -33 1 -33 95 0 108 16 6 13 10 -7 11 -26 2 -36 -27 -47
-140z"/>
<path d="M5852 3108 c-30 -78 -14 -108 58 -108 67 0 70 3 70 70 0 77 -101 108
-128 38z"/>
<path d="M11 2848 c-8 -72 -9 -136 -3 -143 7 -6 12 21 12 62 0 70 3 73 70 73
56 0 70 8 70 38 0 171 -131 145 -149 -30z"/>
<path d="M5740 2950 c0 -16 7 -30 15 -30 32 0 109 -141 99 -180 -9 -34 -1 -40
58 -40 64 0 68 4 68 70 0 67 -3 70 -70 70 -67 0 -70 3 -70 70 0 61 -6 70 -50
70 -31 0 -50 -11 -50 -30z"/>
<path d="M173 2795 c-23 -84 -15 -95 60 -95 l74 0 -44 46 c-23 26 -43 57 -43
70 0 42 -35 26 -47 -21z"/>
<path d="M17 2615 c-5 -146 -7 -819 -1 -750 10 113 144 117 144 5 0 -68 2 -70
80 -70 78 0 80 2 80 70 0 67 3 70 70 70 67 0 70 -3 70 -70 0 -64 5 -70 60 -70
55 0 60 6 60 70 0 64 -5 70 -59 70 -53 0 -59 7 -65 75 -6 75 -12 79 -116 67
-11 -1 -20 -33 -20 -72 0 -68 -2 -70 -80 -70 -78 0 -80 2 -80 69 0 63 -5 69
-65 75 -106 10 -112 156 -6 156 68 0 71 -3 71 -70 0 -68 2 -70 80 -70 78 0 80
2 80 70 0 67 3 70 70 70 67 0 70 -3 70 -70 0 -64 5 -70 60 -70 55 0 60 6 60
70 0 64 -5 70 -60 70 -57 0 -60 4 -60 80 0 76 3 80 61 80 55 0 61 6 55 53 -13
114 -115 108 -116 -8 0 -44 -8 -49 -90 -53 -31 -2 -41 -18 -46 -77 -10 -113
-164 -119 -164 -6 0 63 -5 69 -65 75 -106 10 -112 156 -6 156 68 0 71 -3 71
-70 0 -68 2 -70 80 -70 78 0 80 2 80 70 0 67 3 70 70 70 86 0 86 14 -1 87
l-69 57 0 -72 c0 -71 -1 -72 -80 -72 -78 0 -80 2 -80 70 0 105 -138 110 -143
5z"/>
<path d="M1525 2650 c-52 -59 -31 -110 45 -110 67 0 70 -3 70 -70 0 -67 3 -70
70 -70 67 0 70 3 70 70 0 67 -3 70 -70 70 -67 0 -70 3 -70 70 0 77 -63 99
-115 40z"/>
<path d="M5800 2651 c0 -16 -18 -39 -41 -51 -50 -28 -33 -60 33 -60 46 0 50
-7 44 -75 -5 -69 -11 -75 -66 -75 -55 0 -61 -6 -66 -75 -6 -74 -5 -75 65 -75
81 0 116 -137 36 -142 -19 -2 -48 -4 -65 -5 -20 -2 -32 -29 -36 -78 -6 -73 -9
-75 -84 -75 -75 0 -78 2 -84 75 -5 69 -11 75 -66 75 -55 0 -61 -6 -66 -75 -10
-117 -158 -117 -168 0 -9 115 -123 115 -132 0 -6 -74 -5 -75 65 -75 68 0 71
-3 71 -70 0 -69 -5 -74 -90 -78 -85 -4 -67 -152 19 -152 68 0 71 -3 71 -70 0
-66 97 -107 143 -60 41 40 -12 130 -75 130 -66 0 -68 2 -68 80 0 78 2 80 69
80 63 0 69 5 75 65 10 106 156 112 156 6 0 -105 134 -111 144 -6 10 106 156
112 156 6 0 -53 -9 -72 -35 -73 -19 -2 -48 -4 -65 -5 -20 -2 -32 -29 -36 -78
-6 -74 -5 -75 65 -75 81 0 116 -137 36 -142 -19 -2 -48 -4 -65 -5 -20 -2 -32
-29 -36 -78 -6 -74 -5 -75 65 -75 73 0 117 -136 46 -142 -14 -1 -43 -4 -65 -5
-86 -6 -67 -153 20 -153 71 0 72 -1 66 -75 -6 -70 -10 -75 -71 -75 -62 0 -65
-3 -65 -75 0 -72 2 -75 70 -75 68 0 70 -2 70 -80 0 -78 -2 -80 -70 -80 -67 0
-70 -3 -70 -70 0 -67 3 -70 70 -70 68 0 70 -2 70 -80 0 -78 -2 -80 -70 -80
-67 0 -70 -3 -70 -70 0 -67 3 -70 70 -70 67 0 70 -3 70 -70 0 -67 3 -70 70
-70 67 0 70 3 70 70 0 67 -3 70 -70 70 -67 0 -70 3 -70 70 0 67 3 70 70 70 68
0 70 2 70 80 0 78 -2 80 -70 80 -67 0 -70 3 -70 70 0 67 3 70 70 70 68 0 70 2
70 80 0 78 -2 80 -70 80 -68 0 -70 2 -70 80 0 78 2 80 70 80 67 0 70 3 70 70
0 67 -3 70 -70 70 -68 0 -70 2 -70 80 0 78 2 80 70 80 67 0 70 3 70 70 0 67
-3 70 -70 70 -68 0 -70 2 -70 80 0 78 2 80 70 80 67 0 70 3 70 70 0 67 -3 70
-70 70 -68 0 -70 2 -70 80 0 78 2 80 70 80 67 0 70 3 70 70 0 67 -3 70 -70 70
-68 0 -70 2 -70 80 0 78 2 80 70 80 67 0 70 3 70 70 0 67 -3 70 -70 70 -68 0
-70 2 -70 80 0 78 2 80 70 80 67 0 70 3 70 70 0 67 -3 70 -70 70 -67 0 -70 3
-70 70 0 39 -9 70 -20 70 -11 0 -20 -13 -20 -29z"/>
<path d="M2533 2543 c4 -14 7 -53 7 -85 0 -53 6 -58 70 -58 67 0 70 3 70 70 0
66 -4 70 -68 70 -38 0 -72 7 -77 15 -5 8 -5 3 -2 -12z"/>
<path d="M1352 2508 c-31 -81 -15 -108 65 -108 67 0 76 5 71 45 -2 25 -5 56
-6 70 -3 37 -115 31 -130 -7z"/>
<path d="M3452 2508 c-28 -73 -14 -108 46 -108 56 0 81 36 82 115 0 37 -113
31 -128 -7z"/>
<path d="M4940 2470 c0 -67 3 -70 70 -70 89 0 102 79 19 117 -77 35 -89 29
-89 -47z"/>
<path d="M5639 2489 c-14 -17 -37 -26 -51 -21 -20 8 -48 -26 -48 -60 0 -4 32
-8 70 -8 64 0 70 5 70 60 0 69 -5 72 -41 29z"/>
<path d="M2840 2437 c0 -29 15 -37 70 -37 39 0 70 7 70 15 0 8 -31 25 -70 37
-63 20 -70 18 -70 -15z"/>
<path d="M1100 2429 l-70 -27 75 -1 c54 -1 75 7 75 29 0 17 -2 29 -5 28 -3 -2
-36 -15 -75 -29z"/>
<path d="M2310 2446 c-77 -19 -79 -46 -4 -46 52 0 74 9 74 30 0 31 -3 32 -70
16z"/>
<path d="M1940 2419 c0 -11 32 -19 70 -19 91 0 91 29 0 34 -39 2 -70 -5 -70
-15z"/>
<path d="M1555 2384 c-95 -12 -81 -144 15 -144 67 0 70 -3 70 -70 0 -67 3 -70
70 -70 67 0 70 3 70 70 0 67 -3 70 -70 70 -66 0 -70 4 -70 69 0 78 -8 85 -85
75z"/>
<path d="M2435 2385 c-77 -17 -46 -145 35 -145 67 0 70 -3 70 -70 0 -67 3 -70
70 -70 67 0 70 3 70 70 0 67 -3 70 -70 70 -66 0 -70 4 -70 68 0 70 -31 92
-105 77z"/>
<path d="M2724 2385 c-65 -22 -26 -145 46 -145 67 0 70 -3 70 -70 0 -67 3 -70
70 -70 67 0 70 3 70 70 0 67 -3 70 -70 70 -66 0 -70 4 -70 68 0 68 -48 99
-116 77z"/>
<path d="M600 2310 c0 -67 3 -70 70 -70 67 0 70 -3 70 -70 0 -67 3 -70 70 -70
67 0 70 3 70 70 0 67 -3 70 -70 70 -67 0 -70 3 -70 70 0 67 -3 70 -70 70 -67
0 -70 -3 -70 -70z"/>
<path d="M900 2310 c0 -67 3 -70 70 -70 72 0 115 -136 45 -142 -14 -1 -43 -4
-65 -5 -85 -6 -67 -153 19 -153 68 0 71 -3 71 -70 0 -67 3 -70 70 -70 67 0 70
3 70 70 0 67 -3 70 -70 70 -68 0 -70 2 -70 80 0 78 2 80 70 80 67 0 70 3 70
70 0 67 -3 70 -70 70 -67 0 -70 3 -70 70 0 67 -3 70 -70 70 -67 0 -70 -3 -70
-70z"/>
<path d="M1200 2310 c0 -67 3 -70 70 -70 67 0 70 -3 70 -70 0 -67 3 -70 70
-70 67 0 70 3 70 70 0 67 -3 70 -70 70 -67 0 -70 3 -70 70 0 67 -3 70 -70 70
-67 0 -70 -3 -70 -70z"/>
<path d="M1800 2310 c0 -67 3 -70 70 -70 67 0 70 -3 70 -70 0 -67 3 -70 70
-70 67 0 70 3 70 70 0 67 -3 70 -70 70 -67 0 -70 3 -70 70 0 67 -3 70 -70 70
-67 0 -70 -3 -70 -70z"/>
<path d="M2100 2310 c0 -67 3 -70 70 -70 67 0 70 -3 70 -70 0 -67 3 -70 70
-70 67 0 70 3 70 70 0 67 -3 70 -70 70 -67 0 -70 3 -70 70 0 67 -3 70 -70 70
-67 0 -70 -3 -70 -70z"/>
<path d="M3000 2310 c0 -67 3 -70 70 -70 67 0 70 -3 70 -70 0 -67 3 -70 70
-70 67 0 70 3 70 70 0 67 -3 70 -70 70 -67 0 -70 3 -70 70 0 67 -3 70 -70 70
-67 0 -70 -3 -70 -70z"/>
<path d="M3300 2310 c0 -67 3 -70 70 -70 67 0 70 -3 70 -70 0 -67 3 -70 70
-70 67 0 70 3 70 70 0 67 -3 70 -70 70 -67 0 -70 3 -70 70 0 67 -3 70 -70 70
-67 0 -70 -3 -70 -70z"/>
<path d="M4595 2322 c-43 -84 -43 -82 5 -82 32 0 40 -13 40 -68 0 -69 -25 -92
-102 -92 -30 0 -38 -14 -38 -70 0 -68 -2 -70 -80 -70 -78 0 -80 2 -80 70 l0
69 -70 -33 c-42 -20 -70 -48 -70 -70 0 -28 16 -36 70 -36 67 0 70 -3 70 -70 0
-104 134 -109 144 -5 10 106 156 112 156 6 0 -68 3 -71 70 -71 67 0 70 3 70
70 0 67 -3 70 -70 70 -68 0 -70 2 -70 80 0 78 2 80 70 80 67 0 70 3 70 70 0
66 -4 70 -69 70 -65 0 -69 4 -75 75 l-6 75 -35 -68z"/>
<path d="M4800 2310 c0 -67 3 -70 71 -70 106 0 100 -146 -6 -156 -104 -10 -99
-144 5 -144 67 0 70 -3 70 -70 0 -67 3 -70 70 -70 67 0 70 3 70 70 0 67 -3 70
-70 70 -68 0 -70 2 -70 80 0 78 2 80 70 80 67 0 70 3 70 70 0 67 -3 70 -70 70
-67 0 -70 3 -70 70 0 67 -3 70 -70 70 -67 0 -70 -3 -70 -70z"/>
<path d="M5100 2310 c0 -67 3 -70 70 -70 67 0 70 -3 70 -70 0 -67 3 -70 70
-70 67 0 70 3 70 70 0 67 -3 70 -70 70 -67 0 -70 3 -70 70 0 67 -3 70 -70 70
-67 0 -70 -3 -70 -70z"/>
<path d="M5400 2310 c0 -67 3 -70 70 -70 67 0 70 -3 70 -70 0 -100 130 -109
144 -10 11 74 6 80 -77 80 -63 0 -67 4 -67 70 0 67 -3 70 -70 70 -67 0 -70 -3
-70 -70z"/>
<path d="M612 2085 c-48 -48 -9 -145 58 -145 67 0 70 -3 70 -70 0 -71 -7 -76
-105 -75 -27 0 -35 -17 -35 -78 0 -75 2 -77 70 -77 67 0 70 -3 70 -70 0 -72
123 -111 145 -46 22 68 -9 116 -77 116 -66 0 -68 2 -68 80 0 78 2 80 70 80 67
0 70 3 70 70 0 66 -4 70 -69 70 -64 0 -69 4 -75 73 -6 70 -82 114 -124 72z"/>
<path d="M1212 2085 c-48 -48 -9 -145 58 -145 67 0 70 -3 70 -70 0 -67 3 -70
70 -70 67 0 70 3 70 70 0 66 -4 70 -69 70 -64 0 -69 4 -75 73 -6 70 -82 114
-124 72z"/>
<path d="M1514 2087 c-50 -50 -13 -147 56 -147 67 0 70 -3 70 -70 0 -67 3 -70
70 -70 67 0 70 3 70 70 0 67 -3 70 -70 70 -67 0 -70 3 -70 70 0 47 -9 70 -28
70 -16 0 -41 5 -56 11 -16 5 -34 4 -42 -4z"/>
<path d="M1812 2085 c-48 -48 -10 -145 58 -145 104 0 109 -134 5 -144 -106
-10 -112 -156 -6 -156 68 0 71 -3 71 -70 0 -67 3 -70 70 -70 67 0 70 3 70 70
0 67 -3 70 -70 70 -68 0 -70 2 -70 80 0 78 2 80 70 80 67 0 70 3 70 70 0 66
-4 70 -69 70 -65 0 -69 4 -75 75 -6 71 -80 114 -124 70z"/>
<path d="M2113 2086 c-49 -49 -11 -146 57 -146 67 0 70 -3 70 -70 0 -100 130
-109 144 -10 11 74 6 80 -77 80 -63 0 -67 4 -67 70 0 39 -7 71 -15 71 -8 1
-34 6 -57 10 -23 4 -48 2 -55 -5z"/>
<path d="M2413 2086 c-49 -49 -11 -146 57 -146 67 0 70 -3 70 -70 0 -67 3 -70
70 -70 67 0 70 3 70 70 0 67 -3 70 -70 70 -67 0 -70 3 -70 70 0 39 -7 71 -15
71 -8 1 -34 6 -57 10 -23 4 -48 2 -55 -5z"/>
<path d="M2713 2087 c-49 -50 -11 -147 57 -147 67 0 70 -3 70 -70 0 -66 97
-107 143 -60 41 40 -12 130 -75 130 -64 0 -68 4 -68 68 0 77 -79 126 -127 79z"/>
<path d="M3013 2086 c-49 -49 -11 -146 57 -146 84 0 113 -137 30 -142 -22 -2
-51 -4 -65 -5 -14 -2 -28 -36 -31 -78 -6 -74 -5 -75 65 -75 68 0 71 -3 71 -70
0 -66 97 -107 143 -60 41 40 -12 130 -75 130 -66 0 -68 2 -68 80 0 78 2 80 70
80 67 0 70 3 70 70 0 67 -3 70 -70 70 -67 0 -70 3 -70 70 0 39 -7 71 -15 71
-8 1 -34 6 -57 10 -23 4 -48 2 -55 -5z"/>
<path d="M3313 2086 c-50 -49 -11 -146 58 -146 70 0 71 -1 65 -75 -5 -69 -11
-75 -66 -75 -55 0 -61 -6 -66 -75 -6 -74 -5 -75 65 -75 81 0 116 -137 36 -142
-19 -2 -48 -4 -65 -5 -20 -2 -32 -29 -36 -78 -6 -74 -5 -75 65 -75 68 0 71 -3
71 -70 0 -104 134 -109 144 -5 10 106 156 112 156 6 0 -73 123 -113 145 -47
22 68 -9 116 -77 116 -64 0 -68 4 -68 70 0 39 -7 71 -15 72 -100 16 -115 8
-121 -67 -10 -122 -164 -117 -164 5 0 78 2 80 70 80 67 0 70 3 70 70 0 67 -3
70 -70 70 -68 0 -70 2 -70 80 0 78 2 80 70 80 67 0 70 3 70 70 0 67 -3 70 -70
70 -67 0 -70 3 -70 70 0 39 -7 71 -15 71 -8 1 -34 6 -57 10 -23 4 -48 2 -55
-5z"/>
<path d="M3600 2010 c0 -67 3 -70 70 -70 67 0 70 -3 70 -71 0 -70 1 -71 75
-65 75 6 79 12 67 116 -1 11 -33 20 -72 20 -67 0 -70 3 -70 70 0 67 -3 70 -70
70 -67 0 -70 -3 -70 -70z"/>
<path d="M3900 1991 c0 -45 8 -51 70 -51 67 0 70 -3 70 -70 0 -67 3 -70 70
-70 67 0 70 3 70 70 0 67 -3 70 -70 70 -56 0 -70 8 -70 38 0 25 -12 37 -35 33
-19 -3 -51 2 -70 12 -29 15 -35 10 -35 -32z"/>
<path d="M332 1785 c-7 -6 -12 -42 -12 -78 0 -65 -3 -67 -80 -67 -78 0 -80 2
-80 70 0 66 -4 70 -68 70 l-67 0 -14 -132 c-8 -72 -9 -136 -3 -143 7 -6 12 21
12 62 0 70 3 73 70 73 67 0 70 -3 70 -70 0 -68 2 -70 80 -70 78 0 80 2 80 70
0 67 3 70 70 70 67 0 70 -3 70 -70 0 -64 5 -70 60 -70 55 0 60 6 60 70 0 64
-5 70 -59 70 -53 0 -59 7 -65 73 -6 70 -82 114 -124 72z"/>
<path d="M913 1787 c-49 -50 -11 -147 57 -147 67 0 70 -3 70 -70 0 -67 3 -70
70 -70 67 0 70 3 70 70 0 67 -3 70 -70 70 -66 0 -70 4 -70 68 0 77 -79 126
-127 79z"/>
<path d="M1212 1785 c-48 -48 -9 -145 58 -145 67 0 70 -3 70 -70 0 -67 3 -70
70 -70 67 0 70 3 70 70 0 66 -4 70 -69 70 -64 0 -69 4 -75 73 -6 70 -82 114
-124 72z"/>
<path d="M1510 1784 c-47 -47 -6 -144 60 -144 67 0 70 -3 70 -70 0 -67 3 -70
70 -70 67 0 70 3 70 70 0 66 -4 70 -69 70 -65 0 -69 4 -75 74 -6 70 -83 113
-126 70z"/>
<path d="M2113 1787 c-49 -50 -11 -147 57 -147 67 0 70 -3 70 -70 0 -67 3 -70
70 -70 67 0 70 3 70 70 0 67 -3 70 -70 70 -66 0 -70 4 -70 68 0 77 -79 126
-127 79z"/>
<path d="M2413 1786 c-49 -49 -11 -146 57 -146 67 0 70 -3 70 -70 0 -86 125
-110 146 -28 18 69 -5 98 -78 98 -64 0 -68 4 -68 70 0 39 -7 71 -15 71 -8 1
-34 6 -57 10 -23 4 -48 2 -55 -5z"/>
<path d="M2700 1720 c0 -78 2 -80 70 -80 67 0 70 -3 70 -70 0 -67 3 -70 70
-70 67 0 70 3 70 70 0 66 -4 70 -69 70 -64 0 -69 4 -75 73 -10 118 -136 125
-136 7z"/>
<path d="M3613 1786 c-49 -49 -11 -146 57 -146 67 0 70 -3 70 -70 0 -67 3 -70
70 -70 67 0 70 3 70 70 0 67 -3 70 -70 70 -67 0 -70 3 -70 70 0 39 -7 71 -15
71 -8 1 -34 6 -57 10 -23 4 -48 2 -55 -5z"/>
<path d="M3955 1784 c-95 -12 -81 -144 15 -144 67 0 70 -3 70 -71 0 -70 1 -71
74 -65 68 5 74 11 74 66 0 55 -6 61 -74 66 -70 6 -74 10 -74 74 0 77 -8 84
-85 74z"/>
<path d="M4200 1718 c0 -76 2 -78 70 -78 67 0 70 -3 70 -70 0 -104 134 -109
144 -5 10 106 156 112 156 6 0 -68 3 -71 70 -71 67 0 70 3 70 70 0 66 -4 70
-69 70 -65 0 -69 4 -75 74 -9 114 -123 115 -132 1 -10 -115 -158 -117 -168 -2
-10 116 -136 121 -136 5z"/>
<path d="M4810 1784 c-47 -47 -6 -144 60 -144 67 0 70 -3 70 -70 0 -67 3 -70
70 -70 67 0 70 3 70 70 0 66 -4 70 -69 70 -65 0 -69 4 -75 74 -6 70 -83 113
-126 70z"/>
<path d="M5409 1782 c-46 -45 -4 -142 61 -142 67 0 70 -3 70 -70 0 -67 3 -70
70 -70 67 0 70 3 70 70 0 66 -4 70 -69 70 -65 0 -69 4 -75 73 -6 69 -85 112
-127 69z"/>
<path d="M332 1485 c-7 -6 -12 -42 -12 -78 0 -65 -3 -67 -80 -67 -78 0 -80 2
-80 70 0 66 -4 70 -68 70 l-67 0 -14 -132 c-8 -72 -9 -136 -3 -143 7 -6 12 21
12 62 0 70 3 73 70 73 67 0 70 -3 70 -70 0 -68 2 -70 80 -70 78 0 80 2 80 70
0 67 3 70 70 70 67 0 70 -3 70 -70 0 -80 108 -110 125 -35 14 69 -8 105 -66
105 -51 0 -57 8 -63 73 -6 70 -82 114 -124 72z"/>
<path d="M600 1420 c0 -78 2 -80 70 -80 67 0 70 -3 70 -70 0 -67 3 -70 70 -70
67 0 70 3 70 70 0 67 -3 70 -70 70 -66 0 -70 4 -70 68 0 69 -25 92 -102 92
-31 0 -38 -14 -38 -80z"/>
<path d="M912 1485 c-48 -48 -9 -145 58 -145 67 0 70 -3 70 -70 0 -67 3 -70
70 -70 67 0 70 3 70 70 0 66 -4 70 -69 70 -64 0 -69 4 -75 73 -6 70 -82 114
-124 72z"/>
<path d="M1209 1482 c-46 -45 -4 -142 61 -142 67 0 70 -3 70 -70 0 -67 3 -70
70 -70 67 0 70 3 70 70 0 66 -4 70 -69 70 -65 0 -69 4 -75 73 -6 69 -85 112
-127 69z"/>
<path d="M1514 1487 c-50 -50 -13 -147 56 -147 67 0 70 -3 70 -71 0 -106 146
-100 156 6 10 104 144 99 144 -5 0 -67 3 -70 70 -70 67 0 70 3 70 70 0 66 -4
70 -69 70 -65 0 -69 4 -75 75 -9 114 -123 113 -132 -1 -10 -113 -164 -117
-164 -4 0 47 -9 70 -28 70 -16 0 -41 5 -56 11 -16 5 -34 4 -42 -4z"/>
<path d="M2113 1486 c-49 -49 -11 -146 57 -146 67 0 70 -3 70 -70 0 -67 3 -70
70 -70 67 0 70 3 70 70 0 67 -3 70 -70 70 -67 0 -70 3 -70 70 0 39 -7 71 -15
71 -8 1 -34 6 -57 10 -23 4 -48 2 -55 -5z"/>
<path d="M2413 1486 c-50 -49 -11 -146 58 -146 70 0 71 -1 65 -74 -5 -68 -11
-75 -66 -75 -55 -1 -61 -8 -66 -76 -6 -74 -5 -75 66 -75 71 0 72 -1 66 -75 -5
-69 -11 -75 -66 -75 -55 0 -61 -6 -66 -75 -6 -74 -5 -75 65 -75 70 0 71 -2 71
-80 0 -78 -2 -80 -70 -80 -67 0 -70 -3 -70 -70 0 -67 3 -70 70 -70 68 0 70 -2
70 -80 0 -78 -2 -80 -70 -80 -67 0 -70 -3 -70 -70 0 -67 3 -70 70 -70 67 0 70
-3 70 -70 0 -67 3 -70 70 -70 67 0 70 3 70 70 0 67 -3 70 -70 70 -67 0 -70 3
-70 70 0 67 3 70 70 70 68 0 70 2 70 80 0 78 -2 80 -70 80 -67 0 -70 3 -70 70
0 67 3 70 70 70 68 0 70 2 70 80 0 78 -2 80 -70 80 -68 0 -70 2 -70 80 0 78 2
80 70 80 67 0 70 3 70 70 0 67 -3 70 -70 70 -68 0 -70 2 -70 80 0 78 2 80 70
80 67 0 70 3 70 70 0 67 -3 70 -70 70 -67 0 -70 3 -70 70 0 39 -7 71 -15 71
-8 1 -34 6 -57 10 -23 4 -48 2 -55 -5z"/>
<path d="M2713 1486 c-49 -49 -11 -146 57 -146 67 0 70 -3 70 -70 0 -67 3 -70
70 -70 67 0 70 3 70 70 0 67 -3 70 -70 70 -67 0 -70 3 -70 70 0 39 -7 71 -15
71 -8 1 -34 6 -57 10 -23 4 -48 2 -55 -5z"/>
<path d="M3012 1485 c-48 -48 -10 -145 58 -145 67 0 70 -3 70 -70 0 -67 3 -70
70 -70 67 0 70 3 70 70 0 66 -4 70 -69 70 -65 0 -69 4 -75 75 -6 71 -80 114
-124 70z"/>
<path d="M3913 1487 c-49 -50 -11 -147 57 -147 67 0 70 -3 70 -70 0 -67 3 -70
70 -70 67 0 70 3 70 70 0 67 -3 70 -70 70 -66 0 -70 4 -70 68 0 53 -10 70 -45
79 -58 16 -66 16 -82 0z"/>
<path d="M4214 1487 c-50 -50 -13 -147 56 -147 67 0 70 -3 70 -70 0 -67 3 -70
70 -70 67 0 70 3 70 70 0 67 -3 70 -70 70 -67 0 -70 3 -70 70 0 47 -9 70 -28
70 -16 0 -41 5 -56 11 -16 5 -34 4 -42 -4z"/>
<path d="M4511 1485 c-47 -48 -8 -145 59 -145 67 0 70 -3 70 -70 0 -67 3 -70
70 -70 67 0 70 3 70 70 0 67 -3 70 -70 70 -67 0 -70 3 -70 70 0 42 -10 71 -25
72 -14 0 -40 4 -59 8 -18 3 -38 1 -45 -5z"/>
<path d="M4855 1484 c-95 -12 -81 -144 15 -144 67 0 70 -3 70 -70 0 -67 3 -70
70 -70 67 0 70 3 70 70 0 67 -3 70 -70 70 -66 0 -70 4 -70 69 0 78 -8 85 -85
75z"/>
<path d="M5110 1484 c-47 -47 -6 -144 60 -144 67 0 70 -3 70 -70 0 -67 3 -70
70 -70 67 0 70 3 70 70 0 66 -4 70 -69 70 -65 0 -69 4 -75 75 -6 71 -82 113
-126 69z"/>
<path d="M5455 1484 c-95 -12 -81 -144 15 -144 67 0 70 -3 70 -70 0 -67 3 -70
70 -70 67 0 70 3 70 70 0 67 -3 70 -70 70 -66 0 -70 4 -70 69 0 78 -8 85 -85
75z"/>
<path d="M332 1185 c-7 -6 -12 -42 -12 -78 0 -65 -3 -67 -80 -67 -78 0 -80 2
-80 70 0 105 -138 110 -143 5 -6 -143 -7 -520 -1 -450 6 71 10 75 75 75 104 0
107 134 4 144 -106 10 -112 156 -6 156 68 0 71 -3 71 -70 0 -68 2 -70 80 -70
78 0 80 2 80 70 0 67 3 70 71 70 106 0 100 -146 -6 -156 -103 -10 -100 -144 4
-144 65 0 69 -4 75 -75 7 -85 104 -127 120 -51 17 81 -7 126 -66 126 -54 0
-58 5 -58 80 0 75 4 80 58 80 49 0 59 9 66 60 11 73 5 80 -66 80 -49 0 -56 8
-62 73 -6 70 -82 114 -124 72z"/>
<path d="M600 1118 c0 -76 2 -78 70 -78 67 0 70 -3 70 -70 0 -89 128 -110 144
-24 14 73 -3 94 -74 94 -64 0 -68 4 -74 75 -10 119 -136 122 -136 3z"/>
<path d="M913 1187 c-50 -50 -11 -147 58 -147 70 0 71 -1 65 -75 -5 -69 -11
-75 -66 -75 -55 0 -61 -6 -66 -75 -6 -74 -5 -75 65 -75 70 0 71 -2 71 -80 0
-78 -2 -80 -70 -80 -67 0 -70 -3 -70 -70 0 -67 3 -70 70 -70 68 0 70 -2 70
-80 0 -78 -2 -80 -70 -80 -67 0 -70 -3 -70 -70 0 -67 3 -70 70 -70 67 0 70 -3
70 -70 0 -66 97 -107 143 -60 41 40 -12 130 -75 130 -64 0 -68 4 -68 70 0 67
3 70 70 70 68 0 70 2 70 80 0 78 -2 80 -70 80 -67 0 -70 3 -70 70 0 67 3 70
70 70 68 0 70 2 70 80 0 78 -2 80 -70 80 -68 0 -70 2 -70 80 0 78 2 80 70 80
67 0 70 3 70 70 0 67 -3 70 -70 70 -66 0 -70 4 -70 68 0 53 -10 70 -45 79 -58
16 -66 16 -82 0z"/>
<path d="M1212 1185 c-48 -48 -9 -145 58 -145 67 0 70 -3 70 -70 0 -67 3 -70
70 -70 67 0 70 3 70 70 0 66 -4 70 -69 70 -64 0 -69 4 -75 73 -6 70 -82 114
-124 72z"/>
<path d="M1512 1185 c-48 -48 -9 -145 58 -145 67 0 70 -3 70 -70 0 -68 2 -70
81 -70 53 0 80 9 78 25 -13 93 1 115 71 115 67 0 70 -3 70 -70 0 -89 128 -110
144 -24 14 73 -3 94 -74 94 -64 0 -68 4 -74 75 -9 115 -123 115 -132 0 -10
-115 -158 -117 -168 -2 -6 70 -82 114 -124 72z"/>
<path d="M2113 1186 c-49 -49 -11 -146 57 -146 67 0 70 -3 70 -70 0 -67 3 -70
70 -70 67 0 70 3 70 70 0 67 -3 70 -70 70 -67 0 -70 3 -70 70 0 39 -7 71 -15
71 -8 1 -34 6 -57 10 -23 4 -48 2 -55 -5z"/>
<path d="M2725 1187 c-65 -27 -28 -147 45 -147 67 0 70 -3 70 -70 0 -104 134
-109 144 -5 10 106 156 112 156 6 0 -90 127 -112 144 -25 14 73 -3 94 -76 94
-64 0 -68 4 -68 70 0 39 -9 71 -20 72 -104 12 -110 8 -116 -67 -9 -112 -164
-118 -164 -7 0 79 -42 108 -115 79z"/>
<path d="M3314 1188 c-50 -51 -13 -148 56 -148 80 0 114 -137 35 -142 -19 -2
-48 -4 -65 -5 -20 -2 -32 -29 -36 -78 -6 -74 -5 -75 65 -75 70 0 71 -2 71 -80
0 -78 -2 -80 -70 -80 -67 0 -70 -3 -70 -70 0 -67 3 -70 70 -70 68 0 70 -2 70
-80 0 -78 -2 -80 -70 -80 -67 0 -70 -3 -70 -70 0 -67 3 -70 70 -70 67 0 70 -3
70 -70 0 -67 3 -70 70 -70 67 0 70 3 70 70 0 67 -3 70 -70 70 -67 0 -70 3 -70
70 0 66 4 70 68 70 63 0 68 5 76 71 10 85 7 89 -77 89 -63 0 -67 4 -67 70 0
67 3 70 70 70 68 0 70 2 70 80 0 78 -2 80 -70 80 -68 0 -70 2 -70 80 0 78 2
80 68 80 60 0 68 7 76 60 11 74 6 80 -76 80 -61 0 -66 5 -72 75 -6 74 -78 117
-122 73z"/>
<path d="M3613 1186 c-49 -49 -11 -146 57 -146 67 0 70 -3 70 -71 0 -70 1 -71
75 -65 75 6 79 12 67 116 -1 11 -33 20 -72 20 -67 0 -70 3 -70 70 0 39 -7 71
-15 71 -8 1 -34 6 -57 10 -23 4 -48 2 -55 -5z"/>
<path d="M3912 1185 c-48 -48 -9 -145 58 -145 67 0 70 -3 70 -70 0 -67 3 -70
70 -70 67 0 70 3 70 70 0 66 -4 70 -69 70 -64 0 -69 4 -75 73 -6 70 -82 114
-124 72z"/>
<path d="M4212 1185 c-48 -48 -10 -145 58 -145 67 0 70 -3 70 -70 0 -72 136
-115 142 -45 1 14 4 43 5 65 6 85 153 67 153 -19 0 -68 3 -71 70 -71 67 0 70
3 70 70 0 67 -3 70 -70 70 -66 0 -70 4 -70 68 0 56 -9 70 -51 80 -70 18 -89 1
-89 -79 0 -112 -154 -107 -164 6 -6 71 -80 114 -124 70z"/>
<path d="M4809 1182 c-46 -45 -4 -142 61 -142 67 0 70 -3 70 -70 0 -67 3 -70
70 -70 67 0 70 3 70 70 0 66 -4 70 -69 70 -65 0 -69 4 -75 73 -6 69 -85 112
-127 69z"/>
<path d="M5135 1185 c-76 -17 -46 -145 35 -145 67 0 70 -3 70 -70 0 -104 134
-109 144 -5 10 106 156 112 156 6 0 -68 3 -71 70 -71 67 0 70 3 70 70 0 66 -4
70 -69 70 -65 0 -69 4 -75 75 -5 69 -11 75 -66 75 -55 0 -61 -6 -66 -75 -10
-115 -158 -117 -168 -2 -6 74 -27 89 -101 72z"/>
<path d="M600 816 c0 -73 2 -76 70 -76 68 0 70 -2 70 -80 0 -78 -2 -80 -70
-80 -67 0 -70 -3 -70 -70 0 -67 3 -70 70 -70 68 0 70 -2 70 -80 0 -78 -2 -80
-70 -80 -67 0 -70 -3 -70 -70 0 -67 3 -70 70 -70 67 0 70 -3 70 -70 0 -67 3
-70 70 -70 67 0 70 3 70 70 0 67 -3 70 -70 70 -67 0 -70 3 -70 70 0 66 4 70
68 70 59 0 69 7 76 57 12 85 -1 103 -76 103 -64 0 -68 4 -68 70 0 67 3 70 70
70 68 0 70 2 70 80 0 78 -2 80 -69 80 -65 0 -69 4 -75 75 -9 117 -136 117
-136 1z"/>
<path d="M1212 885 c-48 -48 -9 -145 58 -145 68 0 70 -2 70 -80 0 -78 -2 -80
-70 -80 -67 0 -70 -3 -70 -70 0 -67 3 -70 70 -70 68 0 70 -2 70 -80 0 -78 -2
-80 -70 -80 -67 0 -70 -3 -70 -70 0 -67 3 -70 70 -70 67 0 70 -3 70 -70 0 -67
3 -70 70 -70 67 0 70 3 70 70 0 67 -3 70 -70 70 -67 0 -70 3 -70 70 0 66 4 70
68 70 63 0 68 5 76 71 10 85 7 89 -77 89 -63 0 -67 4 -67 70 0 67 3 70 70 70
68 0 70 2 70 80 0 78 -2 80 -69 80 -64 0 -69 4 -75 73 -6 70 -82 114 -124 72z"/>
<path d="M1509 882 c-46 -45 -4 -142 61 -142 68 0 70 -2 70 -80 0 -78 -2 -80
-70 -80 -67 0 -70 -3 -70 -70 0 -67 3 -70 70 -70 68 0 70 -2 70 -80 0 -78 -2
-80 -70 -80 -67 0 -70 -3 -70 -70 0 -67 3 -70 70 -70 67 0 70 -3 70 -70 0 -67
3 -70 70 -70 67 0 70 3 70 70 0 67 -3 70 -70 70 -67 0 -70 3 -70 70 0 67 3 70
70 70 57 0 71 9 82 50 20 79 -3 110 -81 110 -113 0 -109 134 4 144 115 9 116
143 1 152 -69 6 -74 11 -80 79 -6 67 -85 109 -127 67z"/>
<path d="M1809 883 c-46 -46 -5 -143 61 -143 68 0 70 -2 70 -80 0 -78 -2 -80
-70 -80 -67 0 -70 -3 -70 -70 0 -67 3 -70 70 -70 68 0 70 -2 70 -80 0 -78 -2
-80 -70 -80 -67 0 -70 -3 -70 -70 0 -67 3 -70 70 -70 67 0 70 -3 70 -70 0 -67
3 -70 70 -70 67 0 70 3 70 70 0 67 -3 70 -70 70 -67 0 -70 3 -70 70 0 67 3 70
70 70 68 0 70 2 70 80 0 78 -2 80 -70 80 -67 0 -70 3 -70 70 0 67 3 70 70 70
68 0 70 2 70 80 0 78 -2 80 -69 80 -65 0 -69 4 -75 75 -6 70 -83 111 -127 68z"/>
<path d="M2113 886 c-49 -49 -11 -146 57 -146 68 0 70 -2 70 -80 0 -78 -2 -80
-70 -80 -67 0 -70 -3 -70 -70 0 -67 3 -70 70 -70 68 0 70 -2 70 -80 0 -78 -2
-80 -70 -80 -67 0 -70 -3 -70 -70 0 -67 3 -70 70 -70 67 0 70 -3 70 -70 0 -67
3 -70 70 -70 67 0 70 3 70 70 0 67 -3 70 -70 70 -67 0 -70 3 -70 70 0 67 3 70
70 70 68 0 70 2 70 80 0 78 -2 80 -70 80 -67 0 -70 3 -70 70 0 66 4 70 68 70
54 0 69 9 75 45 16 88 -2 115 -74 115 -65 0 -69 4 -69 70 0 39 -7 71 -15 71
-8 1 -34 6 -57 10 -23 4 -48 2 -55 -5z"/>
<path d="M2713 886 c-49 -49 -11 -146 57 -146 68 0 70 -2 70 -80 0 -78 -2 -80
-70 -80 -67 0 -70 -3 -70 -70 0 -67 3 -70 70 -70 68 0 70 -2 70 -80 0 -78 -2
-80 -70 -80 -67 0 -70 -3 -70 -70 0 -67 3 -70 70 -70 67 0 70 -3 70 -70 0 -67
3 -70 70 -70 67 0 70 3 70 70 0 67 -3 70 -70 70 -67 0 -70 3 -70 70 0 66 4 70
67 70 84 0 87 4 77 89 -8 66 -13 71 -76 71 -64 0 -68 4 -68 70 0 67 3 70 70
70 68 0 70 2 70 80 0 78 -2 80 -70 80 -67 0 -70 3 -70 70 0 39 -7 71 -15 71
-8 1 -34 6 -57 10 -23 4 -48 2 -55 -5z"/>
<path d="M3013 886 c-49 -49 -11 -146 57 -146 68 0 70 -2 70 -80 0 -78 -2 -80
-70 -80 -67 0 -70 -3 -70 -70 0 -67 3 -70 70 -70 68 0 70 -2 70 -80 0 -78 -2
-80 -70 -80 -67 0 -70 -3 -70 -70 0 -67 3 -70 70 -70 67 0 70 -3 70 -70 0 -67
3 -70 70 -70 67 0 70 3 70 70 0 67 -3 70 -70 70 -67 0 -70 3 -70 70 0 67 3 70
70 70 68 0 70 2 70 80 0 78 -2 80 -70 80 -67 0 -70 3 -70 70 0 67 3 70 70 70
68 0 70 2 70 80 0 78 -2 80 -70 80 -67 0 -70 3 -70 70 0 39 -7 71 -15 71 -8 1
-34 6 -57 10 -23 4 -48 2 -55 -5z"/>
<path d="M3613 886 c-49 -49 -11 -146 57 -146 68 0 70 -2 70 -80 0 -78 -2 -80
-70 -80 -67 0 -70 -3 -70 -70 0 -67 3 -70 70 -70 68 0 70 -2 70 -80 0 -78 -2
-80 -70 -80 -67 0 -70 -3 -70 -70 0 -67 3 -70 70 -70 67 0 70 -3 70 -70 0 -67
3 -70 70 -70 67 0 70 3 70 70 0 67 -3 70 -70 70 -67 0 -70 3 -70 70 0 67 3 70
70 70 68 0 70 2 70 80 0 78 -2 80 -70 80 -67 0 -70 3 -70 70 0 67 3 70 70 70
68 0 70 2 70 80 0 78 -2 80 -70 80 -67 0 -70 3 -70 70 0 39 -7 71 -15 71 -8 1
-34 6 -57 10 -23 4 -48 2 -55 -5z"/>
<path d="M3912 885 c-48 -48 -10 -145 58 -145 68 0 70 -2 70 -80 0 -78 -2 -80
-70 -80 -67 0 -70 -3 -70 -70 0 -67 3 -70 70 -70 68 0 70 -2 70 -80 0 -78 -2
-80 -70 -80 -67 0 -70 -3 -70 -70 0 -67 3 -70 70 -70 67 0 70 -3 70 -70 0 -67
3 -70 70 -70 67 0 70 3 70 70 0 67 -3 70 -70 70 -67 0 -70 3 -70 70 0 66 4 70
67 70 84 0 87 4 77 89 -8 66 -13 71 -76 71 -64 0 -68 4 -68 70 0 67 3 70 70
70 68 0 70 2 70 80 0 78 -2 80 -69 80 -65 0 -69 4 -75 75 -6 71 -80 114 -124
70z"/>
<path d="M4209 883 c-46 -46 -5 -143 61 -143 68 0 70 -2 70 -80 0 -78 -2 -80
-70 -80 -67 0 -70 -3 -70 -70 0 -67 3 -70 70 -70 68 0 70 -2 70 -80 0 -78 -2
-80 -70 -80 -67 0 -70 -3 -70 -70 0 -67 3 -70 70 -70 67 0 70 -3 70 -70 0 -67
3 -70 70 -70 67 0 70 3 70 70 0 67 -3 70 -70 70 -67 0 -70 3 -70 70 0 66 4 70
68 70 54 0 69 9 75 45 16 88 -2 115 -74 115 -65 0 -69 4 -69 70 0 66 4 70 67
70 84 0 87 4 77 89 -8 65 -14 71 -75 71 -63 0 -67 5 -73 75 -6 70 -83 111
-127 68z"/>
<path d="M4512 885 c-48 -48 -9 -145 58 -145 68 0 70 -2 70 -80 0 -78 -2 -80
-70 -80 -67 0 -70 -3 -70 -70 0 -67 3 -70 70 -70 68 0 70 -2 70 -80 0 -78 -2
-80 -70 -80 -67 0 -70 -3 -70 -70 0 -67 3 -70 70 -70 67 0 70 -3 70 -70 0 -67
3 -70 70 -70 67 0 70 3 70 70 0 67 -3 70 -70 70 -67 0 -70 3 -70 70 0 67 3 70
70 70 68 0 70 2 70 80 0 78 -2 80 -70 80 -67 0 -70 3 -70 70 0 67 3 70 70 70
68 0 70 2 70 80 0 78 -2 80 -69 80 -64 0 -69 4 -75 73 -6 70 -82 114 -124 72z"/>
<path d="M4809 882 c-46 -45 -4 -142 61 -142 68 0 70 -2 70 -80 0 -78 -2 -80
-70 -80 -67 0 -70 -3 -70 -70 0 -67 3 -70 70 -70 68 0 70 -2 70 -80 0 -78 -2
-80 -70 -80 -67 0 -70 -3 -70 -70 0 -67 3 -70 70 -70 67 0 70 -3 70 -70 0 -67
3 -70 70 -70 67 0 70 3 70 70 0 67 -3 70 -70 70 -67 0 -70 3 -70 70 0 67 3 70
70 70 68 0 70 2 70 80 0 78 -2 80 -70 80 -67 0 -70 3 -70 70 0 66 4 70 67 70
84 0 87 4 77 89 -8 65 -14 71 -75 71 -62 0 -67 5 -73 73 -6 69 -85 112 -127
69z"/>
<path d="M5155 884 c-95 -12 -81 -144 15 -144 68 0 70 -2 70 -80 0 -78 -2 -80
-70 -80 -67 0 -70 -3 -70 -70 0 -67 3 -70 70 -70 68 0 70 -2 70 -80 0 -78 -2
-80 -70 -80 -67 0 -70 -3 -70 -70 0 -67 3 -70 70 -70 67 0 70 -3 70 -70 0 -67
3 -70 70 -70 67 0 70 3 70 70 0 67 -3 70 -70 70 -67 0 -70 3 -70 70 0 66 4 70
69 70 72 0 90 27 74 115 -6 36 -21 45 -75 45 -64 0 -68 4 -68 70 0 66 4 70 68
70 63 0 68 5 76 71 10 85 7 89 -77 89 -63 0 -67 4 -67 69 0 78 -8 85 -85 75z"/>
<path d="M5409 882 c-46 -45 -4 -142 61 -142 68 0 70 -2 70 -80 0 -78 -2 -80
-70 -80 -67 0 -70 -3 -70 -70 0 -67 3 -70 70 -70 68 0 70 -2 70 -80 0 -78 -2
-80 -70 -80 -67 0 -70 -3 -70 -70 0 -67 3 -70 70 -70 67 0 70 -3 70 -70 0 -67
3 -70 70 -70 67 0 70 3 70 70 0 67 -3 70 -70 70 -67 0 -70 3 -70 70 0 67 3 70
70 70 68 0 70 2 70 80 0 78 -2 80 -70 80 -67 0 -70 3 -70 70 0 67 3 70 70 70
68 0 70 2 70 80 0 78 -2 80 -69 80 -65 0 -69 4 -75 73 -6 69 -85 112 -127 69z"/>
<path d="M168 713 c-28 -75 0 -123 72 -123 105 0 109 136 5 146 -44 4 -69 -3
-77 -23z"/>
<path d="M20 510 c0 -67 3 -70 70 -70 67 0 70 3 70 70 0 67 -3 70 -70 70 -67
0 -70 -3 -70 -70z"/>
<path d="M320 510 c0 -67 3 -70 70 -70 67 0 70 3 70 70 0 67 -3 70 -70 70 -67
0 -70 -3 -70 -70z"/>
<path d="M168 413 c-28 -75 0 -123 72 -123 105 0 109 136 5 146 -44 4 -69 -3
-77 -23z"/>
<path d="M468 411 c-24 -63 1 -121 55 -127 58 -7 76 26 60 111 -9 52 -97 64
-115 16z"/>
<path d="M20 210 c0 -67 3 -70 70 -70 67 0 70 3 70 70 0 67 -3 70 -70 70 -67
0 -70 -3 -70 -70z"/>
<path d="M320 210 c0 -67 3 -70 70 -70 67 0 70 -3 70 -70 0 -80 108 -110 125
-35 15 70 -8 105 -67 105 -53 0 -58 6 -58 70 0 67 -3 70 -70 70 -67 0 -70 -3
-70 -70z"/>
<path d="M174 126 c-40 -67 -7 -126 70 -126 77 0 78 2 72 65 -6 64 -113 110
-142 61z"/>
</g>
</svg>
