 <svg  version="1.0" xmlns="http://www.w3.org/2000/svg"  width="300.000000pt" height="300.000000pt" viewBox="0 0 300.000000 300.000000"  preserveAspectRatio="xMidYMid meet">  <g transform="translate(0.000000,300.000000) scale(0.100000,-0.100000)" fill="#ffffff" stroke="none"> <path d="M260 1820 c-14 -4 -24 -12 -23 -18 2 -6 -3 -9 -10 -7 -12 5 -67 -37 -67 -52 0 -4 -16 -24 -35 -43 -20 -19 -33 -41 -30 -50 2 -8 0 -22 -5 -30 -8 -12 -10 -10 -10 9 0 48 -9 14 -14 -53 -3 -37 -9 -73 -14 -79 -13 -17 -20 -77 -10 -77 5 0 8 -20 7 -45 -2 -24 0 -47 4 -51 4 -4 7 -16 7 -26 0 -11 6 -25 13 -32 6 -7 21 -25 32 -39 11 -15 28 -27 37 -27 10 0 18 -7 18 -15 0 -8 6 -12 14 -9 8 3 23 1 34 -5 15 -8 21 -8 24 1 3 7 22 13 46 13 23 0 42 4 42 10 1 16 50 49 50 33 0 -7 8 -1 17 12 10 14 17 27 16 30 -2 11 39 60 47 55 5 -3 11 -1 14 4 4 5 2 12 -3 16 -13 7 29 72 52 78 9 3 15 1 11 -4 -8 -13 27 -68 48 -75 10 -3 20 -20 24 -40 3 -19 12 -34 20 -34 18 0 54 -36 54 -54 0 -8 16 -16 40 -20 22 -3 40 -12 40 -19 0 -7 14 -12 35 -12 21 0 35 5 35 13 0 6 12 12 26 12 17 0 39 14 64 40 21 22 43 40 49 40 6 0 11 18 11 40 0 22 5 40 11 40 6 0 9 6 6 13 -2 6 0 22 4 35 6 15 5 22 -4 22 -9 0 -16 26 -23 75 -5 41 -6 75 -2 75 5 0 8 -16 8 -35 0 -19 4 -35 9 -35 13 0 -3 74 -22 100 -12 18 -14 27 -5 37 8 10 6 13 -11 13 -15 0 -26 10 -36 33 -7 17 -29 45 -49 62 -20 16 -36 36 -36 42 0 8 -12 13 -29 13 -16 0 -34 7 -41 15 -14 16 -80 21 -80 5 0 -5 -15 -12 -34 -15 -18 -4 -49 -22 -69 -41 -35 -34 -36 -35 -58 -17 -12 10 -28 25 -37 34 -8 9 -24 15 -36 12 -14 -3 -17 -2 -8 4 9 7 3 13 -23 20 -19 6 -35 8 -35 5 0 -8 -62 -8 -76 0 -5 3 -20 2 -34 -2z m157 -57 c18 -8 48 -33 68 -54 l35 -40 50 50 c32 33 64 54 90 61 142 38 280 -140 280 -362 0 -110 -39 -179 -112 -198 -88 -24 -157 28 -252 191 -127 217 -181 279 -245 279 -68 0 -120 -72 -147 -203 -22 -105 0 -177 54 -177 43 0 66 22 149 148 62 94 78 112 81 94 2 -13 10 -26 18 -29 22 -8 17 -23 -42 -124 -94 -159 -154 -203 -246 -179 -101 28 -141 146 -103 308 48 203 182 301 322 235z m-60 -135 c9 -8 13 -7 13 3 0 7 10 3 25 -11 30 -29 31 -33 4 -64 -22 -26 -41 -56 -58 -93 -5 -12 -18 -26 -28 -32 -10 -6 -13 -11 -6 -11 7 0 10 -6 7 -14 -3 -8 -11 -13 -19 -10 -7 3 -15 -2 -18 -10 -4 -9 -16 -16 -27 -16 -11 0 -20 -6 -20 -12 0 -9 -4 -8 -10 2 -13 21 -12 60 1 60 8 0 10 17 6 55 -3 30 -2 53 2 50 5 -2 13 6 19 20 7 14 7 25 1 27 -5 2 1 17 13 34 23 33 69 44 95 22z"/> <path d="M620 1674 c-21 -19 -42 -44 -45 -53 -3 -12 21 -62 71 -142 93 -153 108 -169 150 -169 50 0 68 41 61 138 -7 99 -33 167 -83 219 -54 57 -96 59 -154 7z m97 -24 c26 0 33 -4 33 -19 0 -10 7 -21 15 -25 8 -3 14 -10 13 -15 -2 -5 4 -16 13 -23 19 -15 33 -64 21 -72 -4 -3 -6 -22 -3 -43 4 -35 5 -36 12 -13 5 15 6 5 2 -25 -3 -27 -9 -54 -13 -58 -15 -16 -45 -2 -59 28 -8 17 -18 31 -22 33 -14 6 -51 71 -45 80 2 4 1 14 -5 22 -7 12 -9 11 -10 -5 0 -15 -4 -12 -15 12 -8 18 -13 34 -12 35 1 2 -4 12 -10 24 -12 23 -6 35 23 52 20 11 20 11 0 12 -16 0 -17 2 -5 10 9 6 18 6 24 0 6 -6 25 -10 43 -10z"/> <path d="M1147 1810 c-43 -8 -39 -5 -61 -47 -9 -19 -12 -33 -6 -33 5 0 10 -18 10 -40 0 -22 -4 -40 -8 -40 -5 0 -6 -14 -4 -31 3 -20 0 -34 -9 -40 -11 -7 -10 -9 4 -9 19 0 21 -23 8 -102 -5 -30 -4 -49 2 -51 7 -2 7 -27 1 -75 -6 -40 -7 -72 -2 -72 4 0 8 -9 8 -19 0 -11 7 -26 15 -35 8 -8 12 -23 9 -33 -4 -14 -4 -15 4 -4 6 9 24 12 51 9 27 -2 41 0 41 8 0 7 7 14 15 18 8 3 15 17 15 31 0 16 6 25 15 25 19 0 21 66 3 72 -7 3 -13 21 -15 41 -3 60 23 50 92 -35 21 -26 85 -54 85 -37 0 5 8 9 18 9 25 1 56 30 71 68 10 23 20 32 37 32 19 0 23 6 26 38 2 20 3 -15 3 -78 1 -66 -2 -100 -6 -80 -5 25 -6 21 -3 -17 5 -71 11 -80 50 -87 19 -4 34 -10 34 -14 0 -4 16 -7 35 -7 38 0 42 4 23 24 -11 11 -9 12 8 7 19 -6 22 -2 27 26 2 18 0 36 -4 39 -6 3 -6 22 -1 44 l8 39 22 -38 c12 -21 19 -42 15 -48 -4 -7 0 -9 10 -5 10 3 17 2 17 -3 0 -16 81 -70 106 -70 13 0 27 -6 31 -12 11 -17 73 -17 73 -1 0 7 11 13 25 13 33 0 101 34 114 57 8 14 10 15 11 3 0 -13 2 -13 9 -1 6 9 6 22 0 32 -5 10 -9 27 -9 38 0 11 -9 22 -22 27 -19 6 -19 7 -5 16 10 5 21 7 26 4 5 -3 16 6 25 19 20 30 40 23 32 -11 -4 -14 -2 -24 4 -24 5 0 10 -12 10 -26 0 -56 72 -134 122 -134 14 0 28 -3 32 -7 13 -13 75 -10 80 4 3 7 12 13 20 13 7 0 17 12 21 27 4 19 9 23 14 14 7 -10 10 -10 16 -1 5 8 13 5 26 -9 11 -12 24 -21 29 -21 6 0 10 -10 11 -22 0 -13 3 -17 6 -10 5 13 65 17 77 5 13 -13 75 -10 80 4 7 17 62 17 73 1 10 -16 73 -17 73 -2 0 7 6 14 14 17 15 6 40 67 26 67 -9 0 -11 59 -2 74 8 13 8 76 1 76 -10 0 -9 69 1 75 4 2 5 16 2 31 -3 16 1 29 9 35 11 7 10 9 -5 9 -13 0 -17 5 -13 19 3 11 -1 28 -8 38 -7 10 -14 23 -15 28 -3 14 -10 20 -10 8 0 -7 -15 -8 -42 -3 -23 5 -47 6 -54 3 -7 -2 -22 0 -33 7 -14 7 -21 7 -21 1 0 -11 -59 -4 -73 9 -9 8 -77 -11 -77 -22 0 -5 -9 -8 -21 -8 -24 0 -40 -14 -56 -52 -16 -37 -33 -36 -33 2 0 17 -7 33 -17 39 -17 10 -17 10 1 11 11 0 16 3 13 7 -4 3 -29 5 -57 4 -47 -1 -50 0 -50 23 0 35 -31 86 -57 92 -13 4 -23 10 -23 15 0 13 -40 11 -53 -3 -16 -17 -40 -69 -41 -88 -1 -8 -12 -20 -26 -27 -14 -7 -24 -18 -22 -24 1 -6 -2 -7 -8 -4 -7 4 -14 -2 -17 -14 -4 -17 -9 -19 -24 -10 -11 5 -17 15 -13 21 4 7 -1 8 -16 3 -14 -5 -20 -3 -16 3 9 15 -43 30 -87 24 -20 -2 -44 1 -51 7 -10 8 -16 9 -21 1 -3 -5 -17 -10 -31 -10 -13 0 -24 -4 -24 -10 0 -5 -9 -10 -20 -10 -11 0 -20 -7 -20 -15 0 -8 -5 -15 -10 -15 -6 0 -15 -11 -20 -25 -7 -19 -17 -25 -39 -25 -27 0 -29 3 -29 40 -1 30 3 40 15 40 12 0 13 3 3 15 -6 8 -9 23 -5 34 3 10 2 22 -3 25 -6 3 -13 22 -16 41 -6 32 -10 35 -41 35 -19 0 -36 4 -39 8 -3 4 -21 6 -40 4 -28 -3 -40 -12 -57 -41 -13 -20 -23 -40 -24 -46 -2 -29 -18 -54 -38 -59 -18 -5 -19 -8 -7 -15 12 -9 12 -12 -1 -28 -9 -10 -19 -26 -22 -35 -4 -10 -13 -18 -22 -18 -10 0 -15 -10 -15 -27 l-1 -28 -20 25 c-12 13 -16 26 -11 28 6 2 2 12 -9 23 -10 10 -19 29 -20 42 0 12 -3 16 -6 9 -2 -6 -9 -10 -13 -7 -5 3 -7 12 -4 20 6 14 3 18 -41 69 -14 16 -25 40 -25 52 0 20 -5 24 -33 24 -18 0 -37 4 -42 8 -6 5 -27 6 -48 2z m172 -202 c47 -86 89 -159 91 -162 3 -3 46 69 95 159 l90 165 53 0 52 0 0 -275 0 -275 -46 0 -46 0 4 210 c1 116 2 210 1 210 -1 0 -37 -65 -80 -145 l-78 -145 -43 2 -44 3 -79 145 -79 145 0 -212 0 -213 -45 0 -45 0 0 275 0 276 56 -3 56 -3 87 -157z m1038 82 l-5 -60 64 0 64 0 0 -38 0 -38 -63 4 -62 4 3 -118 c5 -143 13 -159 79 -151 l43 5 0 -39 c0 -37 -2 -39 -32 -41 -93 -4 -142 16 -164 67 -9 23 -14 73 -14 156 l0 121 -40 -4 -40 -4 0 38 c0 38 0 38 40 38 l40 0 0 60 0 60 46 0 47 0 -6 -60z m-301 -69 c67 -30 95 -79 108 -184 l6 -49 -150 4 c-141 3 -150 2 -150 -15 0 -11 16 -35 35 -54 34 -34 38 -35 95 -31 36 3 66 11 78 21 25 23 37 21 56 -8 21 -32 15 -42 -43 -68 -69 -31 -155 -28 -213 6 -105 61 -131 232 -51 328 55 65 150 86 229 50z m750 -16 l37 -28 -5 26 c-5 26 -3 27 38 27 l44 0 0 -206 0 -205 -42 3 c-41 3 -43 4 -40 33 l4 30 -30 -28 c-82 -78 -223 -43 -273 68 -23 50 -25 142 -3 193 19 46 59 90 99 108 48 23 127 13 171 -21z m-325 -105 c5 0 9 -18 9 -40 0 -38 -13 -54 -23 -27 -3 6 -2 -8 1 -33 3 -25 12 -50 20 -56 8 -6 13 -17 10 -24 -3 -10 -7 -9 -19 3 -9 8 -29 17 -45 19 -27 3 -29 7 -37 58 -4 30 -5 69 -2 87 5 27 10 32 38 35 19 2 33 -2 35 -9 2 -7 8 -13 13 -13z m-243 -42 c3 -33 0 -38 -17 -38 -13 0 -21 7 -21 18 0 9 -3 28 -7 40 -5 21 -3 23 18 20 20 -2 25 -10 27 -40z m-210 -104 c25 -7 30 -24 7 -24 -8 0 -15 4 -15 8 0 5 -13 7 -29 4 -16 -2 -32 1 -35 7 -8 12 34 15 72 5z"/> <path d="M1933 1555 c-20 -8 -40 -29 -53 -54 l-20 -41 110 0 c70 0 110 4 110 10 0 28 -35 73 -65 86 -41 17 -42 17 -82 -1z m71 -31 c28 -11 17 -24 -19 -24 -24 0 -35 5 -35 15 0 15 26 20 54 9z"/> <path d="M2651 1534 c-83 -69 -50 -224 51 -240 42 -7 103 18 119 49 6 11 11 51 11 90 0 67 -2 73 -31 99 -43 38 -106 39 -150 2z m130 -32 c20 -18 27 -82 8 -82 -6 0 -8 -8 -5 -17 3 -10 -2 -28 -12 -39 -18 -23 -88 -39 -97 -23 -4 5 -1 9 4 9 6 0 2 9 -10 21 -11 11 -18 27 -15 34 3 8 0 15 -6 17 -20 7 2 68 28 78 13 5 24 14 24 21 0 15 57 2 81 -19z"/> </g> </svg> 