 <svg  version="1.0" xmlns="http://www.w3.org/2000/svg"  width="900.000000pt" height="900.000000pt" viewBox="0 0 900.000000 900.000000"  preserveAspectRatio="xMidYMid meet">  <g transform="translate(0.000000,900.000000) scale(0.100000,-0.100000)" fill="#ffffff" stroke="none"> <path d="M2870 8805 c0 -8 5 -15 10 -15 6 0 10 7 10 15 0 8 -4 15 -10 15 -5 0 -10 -7 -10 -15z"/> <path d="M6000 8800 c0 -5 7 -10 15 -10 8 0 15 5 15 10 0 6 -7 10 -15 10 -8 0 -15 -4 -15 -10z"/> <path d="M6070 8110 c0 -5 9 -10 19 -10 11 0 23 5 26 10 4 6 -5 10 -19 10 -14 0 -26 -4 -26 -10z"/> <path d="M902 8071 c2 -7 7 -12 11 -12 12 1 9 15 -3 20 -7 2 -11 -2 -8 -8z"/> <path d="M1062 8069 c2 -6 8 -10 13 -10 5 0 11 4 13 10 2 6 -4 11 -13 11 -9 0 -15 -5 -13 -11z"/> <path d="M1805 8069 c-10 -15 3 -25 16 -12 7 7 7 13 1 17 -6 3 -14 1 -17 -5z"/> <path d="M2255 8069 c-10 -15 3 -25 16 -12 7 7 7 13 1 17 -6 3 -14 1 -17 -5z"/> <path d="M2700 8064 c0 -9 5 -14 12 -12 18 6 21 28 4 28 -9 0 -16 -7 -16 -16z"/> <path d="M4055 8069 c-10 -15 3 -25 16 -12 7 7 7 13 1 17 -6 3 -14 1 -17 -5z"/> <path d="M4500 8060 c0 -11 4 -20 9 -20 11 0 22 26 14 34 -12 12 -23 5 -23 -14z"/> <path d="M4667 8074 c-8 -8 1 -24 14 -24 5 0 9 7 9 15 0 15 -12 20 -23 9z"/> <path d="M8250 8070 c0 -5 9 -10 21 -10 11 0 17 5 14 10 -3 6 -13 10 -21 10 -8 0 -14 -4 -14 -10z"/> <path d="M1062 7619 c2 -6 8 -10 13 -10 5 0 11 4 13 10 2 6 -4 11 -13 11 -9 0 -15 -5 -13 -11z"/> <path d="M1352 7621 c2 -7 7 -12 11 -12 12 1 9 15 -3 20 -7 2 -11 -2 -8 -8z"/> <path d="M1805 7619 c-10 -15 3 -25 16 -12 7 7 7 13 1 17 -6 3 -14 1 -17 -5z"/> <path d="M2255 7619 c-10 -15 3 -25 16 -12 7 7 7 13 1 17 -6 3 -14 1 -17 -5z"/> <path d="M2705 7619 c-10 -15 3 -25 16 -12 7 7 7 13 1 17 -6 3 -14 1 -17 -5z"/> <path d="M5567 7624 c-8 -8 1 -24 14 -24 5 0 9 7 9 15 0 15 -12 20 -23 9z"/> <path d="M6450 7620 c0 -5 9 -10 21 -10 11 0 17 5 14 10 -3 6 -13 10 -21 10 -8 0 -14 -4 -14 -10z"/> <path d="M5570 7455 c0 -8 5 -15 10 -15 6 0 10 7 10 15 0 8 -4 15 -10 15 -5 0 -10 -7 -10 -15z"/> <path d="M8270 7455 c0 -8 5 -15 10 -15 6 0 10 7 10 15 0 8 -4 15 -10 15 -5 0 -10 -7 -10 -15z"/> <path d="M268 7208 c9 -9 15 -9 24 0 9 9 7 12 -12 12 -19 0 -21 -3 -12 -12z"/> <path d="M485 7169 c-10 -15 3 -25 16 -12 7 7 7 13 1 17 -6 3 -14 1 -17 -5z"/> <path d="M3310 7170 c0 -5 7 -10 15 -10 8 0 15 5 15 10 0 6 -7 10 -15 10 -8 0 -15 -4 -15 -10z"/> <path d="M3762 7169 c2 -6 8 -10 13 -10 5 0 11 4 13 10 2 6 -4 11 -13 11 -9 0 -15 -5 -13 -11z"/> <path d="M4210 7170 c0 -5 7 -10 15 -10 8 0 15 5 15 10 0 6 -7 10 -15 10 -8 0 -15 -4 -15 -10z"/> <path d="M4650 7171 c0 -11 26 -22 34 -14 12 12 5 23 -14 23 -11 0 -20 -4 -20 -9z"/> <path d="M5110 7170 c0 -5 7 -10 15 -10 8 0 15 5 15 10 0 6 -7 10 -15 10 -8 0 -15 -4 -15 -10z"/> <path d="M5402 7171 c2 -7 7 -12 11 -12 12 1 9 15 -3 20 -7 2 -11 -2 -8 -8z"/> <path d="M5560 7170 c0 -5 7 -10 15 -10 8 0 15 5 15 10 0 6 -7 10 -15 10 -8 0 -15 -4 -15 -10z"/> <path d="M2870 6715 c0 -8 5 -15 10 -15 6 0 10 7 10 15 0 8 -4 15 -10 15 -5 0 -10 -7 -10 -15z"/> <path d="M3310 6720 c0 -5 7 -10 15 -10 8 0 15 5 15 10 0 6 -7 10 -15 10 -8 0 -15 -4 -15 -10z"/> <path d="M3760 6720 c0 -5 7 -10 15 -10 8 0 15 5 15 10 0 6 -7 10 -15 10 -8 0 -15 -4 -15 -10z"/> <path d="M4502 6721 c4 -13 18 -16 19 -4 0 4 -5 9 -11 12 -7 2 -11 -2 -8 -8z"/> <path d="M4645 6720 c-4 -6 5 -10 20 -10 15 0 24 4 20 10 -3 6 -12 10 -20 10 -8 0 -17 -4 -20 -10z"/> <path d="M5110 6720 c0 -5 7 -10 15 -10 8 0 15 5 15 10 0 6 -7 10 -15 10 -8 0 -15 -4 -15 -10z"/> <path d="M6300 6715 c0 -8 5 -15 10 -15 6 0 10 7 10 15 0 8 -4 15 -10 15 -5 0 -10 -7 -10 -15z"/> <path d="M7812 6719 c2 -6 8 -10 13 -10 5 0 11 4 13 10 2 6 -4 11 -13 11 -9 0 -15 -5 -13 -11z"/> <path d="M1350 6265 c0 -8 5 -15 10 -15 6 0 10 7 10 15 0 8 -4 15 -10 15 -5 0 -10 -7 -10 -15z"/> <path d="M3312 6269 c2 -6 8 -10 13 -10 5 0 11 4 13 10 2 6 -4 11 -13 11 -9 0 -15 -5 -13 -11z"/> <path d="M3760 6270 c0 -5 7 -10 15 -10 8 0 15 5 15 10 0 6 -7 10 -15 10 -8 0 -15 -4 -15 -10z"/> <path d="M4052 6271 c4 -13 18 -16 19 -4 0 4 -5 9 -11 12 -7 2 -11 -2 -8 -8z"/> <path d="M4210 6270 c0 -5 7 -10 15 -10 8 0 15 5 15 10 0 6 -7 10 -15 10 -8 0 -15 -4 -15 -10z"/> <path d="M4660 6270 c0 -5 7 -10 15 -10 8 0 15 5 15 10 0 6 -7 10 -15 10 -8 0 -15 -4 -15 -10z"/> <path d="M5110 6270 c0 -5 7 -10 15 -10 8 0 15 5 15 10 0 6 -7 10 -15 10 -8 0 -15 -4 -15 -10z"/> <path d="M6915 6271 c-6 -11 9 -23 19 -14 9 9 7 23 -3 23 -6 0 -12 -4 -16 -9z"/> <path d="M200 5815 c0 -8 5 -15 10 -15 6 0 10 7 10 15 0 8 -4 15 -10 15 -5 0 -10 -7 -10 -15z"/> <path d="M1510 5820 c0 -5 7 -10 15 -10 8 0 15 5 15 10 0 6 -7 10 -15 10 -8 0 -15 -4 -15 -10z"/> <path d="M1962 5819 c2 -6 8 -10 13 -10 5 0 11 4 13 10 2 6 -4 11 -13 11 -9 0 -15 -5 -13 -11z"/> <path d="M2410 5820 c0 -5 7 -10 15 -10 8 0 15 5 15 10 0 6 -7 10 -15 10 -8 0 -15 -4 -15 -10z"/> <path d="M2004 5461 c-18 -45 -18 -45 -127 -62 -69 -12 -80 -17 -102 -45 -14 -18 -46 -47 -72 -64 -27 -18 -52 -40 -57 -48 -18 -31 -55 -62 -74 -62 -13 0 -22 12 -31 39 -8 30 -15 38 -29 34 -25 -6 -108 60 -120 97 -12 34 -27 38 -54 14 -14 -13 -25 -15 -50 -8 -42 12 -46 31 -9 39 40 9 41 35 1 35 -56 0 -130 21 -144 42 -14 20 -15 19 -31 -12 -13 -26 -21 -31 -38 -25 -43 13 -125 17 -143 7 -15 -8 -24 -6 -41 10 -19 17 -27 19 -50 10 -15 -6 -49 -13 -75 -17 -55 -7 -82 -36 -51 -54 10 -5 14 -13 10 -17 -4 -5 -17 -3 -28 4 -27 17 -110 -3 -102 -25 7 -17 -53 -72 -79 -73 -11 0 -22 -17 -33 -51 -15 -45 -23 -54 -61 -71 -27 -11 -44 -26 -44 -36 -1 -26 -41 -85 -83 -121 -30 -27 -35 -36 -26 -47 6 -8 18 -14 25 -14 8 0 14 -5 14 -10 0 -18 -50 -110 -59 -110 -13 0 -21 27 -21 71 0 21 -4 39 -8 39 -17 0 -21 -13 -11 -32 12 -22 -3 -102 -29 -153 -9 -17 -11 -30 -5 -32 6 -2 18 -10 28 -17 18 -13 18 -15 -3 -60 -12 -25 -22 -65 -22 -90 0 -37 -5 -48 -27 -66 -26 -20 -28 -27 -28 -95 0 -57 -4 -77 -18 -93 -18 -20 -18 -21 13 -37 30 -15 31 -19 25 -56 -4 -22 -1 -62 5 -91 11 -45 11 -55 -5 -84 -17 -32 -17 -33 6 -65 14 -21 24 -52 27 -87 4 -48 8 -55 32 -64 20 -6 33 -22 44 -52 9 -24 41 -69 70 -99 43 -46 63 -58 102 -67 54 -12 64 -22 64 -62 0 -31 7 -35 24 -13 9 13 20 13 75 3 35 -7 65 -18 68 -25 8 -21 20 -15 33 17 10 25 18 30 45 30 17 0 58 5 90 12 56 11 59 10 77 -12 25 -31 53 -16 53 29 0 27 7 35 45 57 25 14 57 37 71 51 l27 25 16 -23 c8 -13 17 -21 18 -18 2 2 12 22 23 43 12 25 32 44 52 53 38 15 41 28 12 44 -21 11 -21 11 9 42 16 18 42 55 58 82 35 62 44 68 66 48 17 -15 20 -15 38 2 l20 18 -25 27 c-14 14 -25 28 -25 31 0 3 13 20 29 38 25 27 44 61 81 141 4 8 24 18 46 22 21 5 44 15 51 24 8 11 13 12 18 4 4 -6 0 -17 -9 -23 -15 -11 -15 -16 -1 -66 14 -44 20 -52 36 -48 14 4 19 0 19 -13 0 -11 5 -22 10 -25 6 -3 10 -15 10 -25 0 -14 16 -28 51 -45 43 -22 54 -34 75 -81 13 -30 24 -65 24 -77 0 -50 11 -65 51 -71 35 -6 49 -15 92 -66 7 -8 23 -22 35 -30 15 -10 27 -31 33 -62 10 -44 13 -48 47 -53 78 -13 148 -29 164 -37 9 -4 22 -24 29 -43 13 -36 24 -44 31 -23 2 6 26 13 54 15 37 2 56 -2 77 -18 33 -24 31 -25 43 21 11 38 10 38 138 65 70 15 80 21 95 48 9 18 34 48 56 69 21 20 46 52 55 70 12 26 24 35 56 42 l42 9 7 104 c7 110 5 104 63 139 1 1 -2 12 -8 26 -18 39 0 120 30 135 26 13 26 12 -35 31 l-30 9 -3 116 c-1 64 1 117 5 117 4 0 14 4 22 9 11 7 12 13 3 23 -13 16 -18 113 -7 146 6 17 3 22 -9 22 -13 0 -16 -12 -16 -64 0 -71 -9 -126 -20 -126 -4 0 -13 35 -20 78 -7 42 -16 85 -21 95 -8 13 -4 20 16 29 18 8 25 19 24 37 -1 29 -16 83 -18 64 -2 -23 -16 -14 -35 22 -16 29 -17 40 -8 61 8 16 19 24 31 22 10 -2 20 2 22 7 2 6 -20 13 -51 16 -67 7 -100 23 -100 48 0 10 -6 24 -14 30 -7 6 -21 38 -30 72 -15 53 -22 63 -62 88 -25 15 -53 39 -62 53 -9 14 -37 41 -62 60 -30 22 -47 44 -50 63 -6 33 -23 39 -126 50 -58 7 -67 11 -91 41 -24 32 -29 34 -83 34 -32 0 -74 7 -94 15 l-36 15 -16 -39z m-940 -122 c16 -5 41 -9 55 -9 35 0 144 -55 211 -106 60 -46 139 -126 189 -191 18 -24 38 -43 44 -43 7 1 27 24 45 53 40 62 92 120 158 173 27 21 51 41 54 44 32 32 161 83 246 97 31 5 174 -26 210 -46 11 -5 26 -12 34 -15 56 -21 172 -119 229 -194 65 -85 91 -122 91 -131 0 -5 6 -16 13 -23 21 -22 92 -197 120 -298 36 -130 47 -225 47 -409 0 -143 -4 -195 -16 -235 -25 -75 -45 -129 -55 -146 -5 -8 -13 -25 -19 -38 -26 -61 -172 -172 -226 -172 -11 0 -42 -7 -68 -16 -45 -15 -53 -15 -116 0 -37 9 -74 16 -82 16 -37 0 -159 82 -218 147 -34 36 -141 177 -167 218 -7 11 -39 62 -70 113 -32 51 -66 105 -75 120 -10 15 -22 36 -27 47 -5 11 -20 36 -32 55 -13 19 -41 70 -63 113 -21 42 -44 77 -50 77 -7 0 -18 17 -25 38 -17 46 -77 122 -98 122 -13 0 -14 -9 -9 -52 5 -41 13 -59 36 -80 17 -16 37 -28 45 -28 23 0 18 -51 -9 -101 -14 -24 -36 -66 -51 -94 -14 -27 -35 -66 -46 -85 -34 -57 -133 -220 -149 -245 -46 -72 -95 -142 -109 -157 -160 -167 -196 -190 -331 -219 -81 -16 -94 -17 -137 -4 -26 8 -60 15 -75 15 -24 0 -66 18 -107 45 -32 21 -141 137 -141 149 0 8 -7 19 -15 26 -8 7 -15 19 -15 27 0 8 -6 29 -14 46 -45 105 -61 357 -30 486 7 31 13 69 14 85 0 25 12 70 42 161 6 17 12 41 15 55 5 27 14 48 68 160 59 121 113 198 203 286 58 57 151 124 172 124 6 0 21 6 33 12 32 18 177 46 212 41 17 -3 43 -9 59 -14z"/> <path d="M2015 5121 c-60 -14 -103 -41 -165 -103 -77 -78 -160 -185 -160 -208 0 -9 16 -38 35 -63 19 -25 35 -50 35 -56 0 -5 6 -14 13 -18 12 -8 29 -32 47 -68 6 -11 19 -33 30 -50 11 -16 24 -39 29 -50 5 -11 21 -37 35 -58 14 -21 26 -40 26 -43 0 -2 12 -23 27 -47 39 -59 51 -80 59 -97 4 -8 19 -31 33 -50 14 -19 31 -43 36 -52 38 -64 94 -135 141 -183 l55 -55 76 0 c59 0 83 5 109 21 19 11 34 26 34 33 0 7 5 17 11 23 7 7 20 36 30 65 24 69 26 288 4 362 -8 27 -15 66 -15 86 0 75 -64 250 -148 405 -24 44 -152 164 -196 184 -51 22 -136 33 -181 22z m-9 -146 c15 -23 22 -25 89 -25 113 0 131 -6 143 -48 7 -21 13 -46 15 -57 2 -11 9 -19 15 -17 7 1 22 -7 34 -18 19 -17 20 -24 11 -54 -10 -34 -10 -34 31 -46 52 -15 66 -27 66 -54 0 -11 7 -39 15 -61 20 -58 19 -101 -6 -126 -13 -13 -18 -27 -14 -40 8 -24 10 -126 4 -149 -2 -9 4 -16 19 -18 21 -3 22 0 22 52 0 67 16 74 26 11 5 -34 3 -50 -9 -63 -10 -11 -16 -46 -19 -106 -5 -99 -16 -116 -73 -116 -81 0 -139 59 -151 152 -6 45 -9 48 -45 58 -33 9 -43 19 -65 63 -15 29 -42 70 -60 93 -38 46 -44 80 -15 89 17 5 17 7 2 40 -9 19 -19 34 -22 35 -4 0 -10 -16 -13 -36 -10 -48 -26 -39 -53 31 -13 32 -37 73 -54 91 l-31 32 23 12 c13 7 25 14 27 15 2 1 -11 16 -28 33 -32 33 -36 52 -19 100 11 32 48 52 95 52 38 0 29 27 -11 34 -42 8 -44 18 -7 45 35 26 38 26 58 -4z"/> <path d="M1970 4740 c0 -19 3 -21 12 -12 9 9 9 15 0 24 -9 9 -12 7 -12 -12z"/> <path d="M831 5022 c-49 -33 -125 -117 -157 -174 -56 -101 -99 -210 -114 -288 -5 -25 -13 -58 -19 -75 -10 -30 -16 -75 -27 -214 -8 -83 9 -196 37 -252 9 -19 32 -49 50 -67 31 -31 36 -32 112 -32 74 0 82 2 121 32 56 44 75 63 127 133 46 61 159 229 172 255 12 23 28 49 91 145 33 50 75 114 94 143 19 29 42 57 52 62 40 21 34 47 -26 123 -89 111 -174 191 -232 220 -46 23 -66 27 -140 27 -83 -1 -89 -2 -141 -38z m187 -58 c12 -4 22 -10 22 -15 0 -12 -117 -12 -125 0 -10 16 60 26 103 15z m-127 -65 c13 -19 15 -19 47 -4 40 21 107 12 125 -16 14 -22 27 -25 27 -6 0 7 6 21 13 31 12 17 20 10 85 -70 83 -102 87 -123 27 -140 -33 -9 -39 -15 -37 -33 4 -24 -23 -61 -44 -61 -8 0 -18 -23 -24 -58 -10 -51 -16 -61 -46 -77 -21 -11 -37 -28 -40 -44 -16 -73 -62 -131 -105 -131 -10 0 -19 -7 -19 -15 0 -8 9 -15 20 -15 32 0 34 -26 5 -64 -26 -34 -28 -35 -51 -19 -23 15 -24 14 -38 -19 -22 -52 -48 -70 -97 -67 -36 3 -44 0 -52 -19 -24 -52 -56 1 -72 119 -7 49 -6 50 24 62 31 11 31 12 33 92 2 114 1 126 -18 139 -18 13 -16 35 7 93 l11 28 13 -30 13 -30 11 30 c20 54 35 80 55 96 19 16 19 17 -12 24 -18 3 -32 12 -32 20 0 7 16 35 35 61 19 27 49 70 66 97 34 52 49 58 70 26z"/> <path d="M832 4231 c4 -13 18 -16 19 -4 0 4 -5 9 -11 12 -7 2 -11 -2 -8 -8z"/> <path d="M3530 5440 c-8 -6 -49 -10 -90 -9 -70 2 -75 1 -78 -19 -3 -19 2 -22 27 -22 17 0 31 -4 31 -9 0 -13 -53 -21 -64 -10 -24 23 -86 6 -79 -21 3 -10 -11 -49 -31 -87 l-36 -68 22 -16 c19 -15 22 -27 23 -105 1 -49 3 -96 6 -104 2 -9 -10 -21 -34 -33 -37 -19 -38 -20 -18 -34 17 -12 21 -25 21 -74 0 -73 -12 -99 -46 -99 -14 0 -22 -4 -19 -10 3 -5 21 -10 40 -10 19 0 37 -6 42 -12 4 -7 8 -56 8 -108 0 -76 -3 -98 -17 -112 -14 -14 -16 -30 -11 -91 5 -65 3 -77 -14 -94 l-20 -20 31 -16 32 -15 -1 -100 c-1 -81 -5 -103 -19 -117 -13 -13 -15 -25 -9 -44 12 -39 8 -118 -7 -136 -8 -10 -23 -15 -37 -12 -13 2 -23 0 -23 -4 0 -5 9 -9 20 -9 12 0 34 -7 50 -15 27 -14 30 -21 30 -62 0 -52 29 -108 60 -116 12 -3 20 -14 20 -25 0 -28 22 -34 135 -38 88 -3 102 -6 117 -24 24 -29 41 -16 36 28 -4 31 0 37 27 54 41 23 70 85 62 131 -5 30 -2 36 19 46 14 6 31 11 39 11 12 0 15 19 15 95 0 90 -1 96 -22 104 -44 17 -59 43 -47 84 6 24 7 55 1 87 -9 46 -7 52 12 65 11 8 28 15 37 15 18 0 29 27 29 72 0 45 14 39 45 -18 25 -47 28 -56 15 -64 -8 -5 -23 -10 -33 -10 -12 0 -17 -6 -15 -17 2 -12 11 -17 25 -15 27 4 77 -56 94 -114 11 -35 19 -45 51 -58 29 -11 43 -24 56 -54 16 -39 18 -40 76 -45 37 -3 69 -13 87 -26 l29 -21 14 35 c14 33 17 35 65 35 27 0 53 5 57 11 3 6 30 26 60 45 36 23 56 43 60 62 12 48 74 157 97 169 12 7 43 13 70 13 l47 0 1 78 c0 79 12 131 22 102 3 -8 8 -50 12 -94 5 -64 3 -80 -10 -90 -25 -18 -27 -187 -3 -232 14 -26 18 -56 18 -124 0 -78 -2 -91 -19 -100 -15 -7 -18 -18 -15 -47 2 -21 6 -63 9 -93 l6 -55 82 -18 c110 -25 135 -36 142 -58 4 -13 13 -18 23 -15 9 3 44 10 77 16 51 9 62 8 71 -5 15 -20 24 -19 24 2 0 9 -10 27 -21 39 -23 25 -20 50 7 61 10 4 22 -1 30 -11 15 -21 51 -17 46 5 -6 23 20 122 36 142 8 9 13 18 11 20 -2 1 -17 9 -34 18 -20 10 -29 22 -28 35 2 10 6 57 10 102 4 60 10 85 21 89 24 10 46 -11 65 -63 10 -27 31 -65 47 -85 37 -47 41 -71 12 -84 -12 -5 -21 -14 -19 -20 6 -18 38 -17 59 2 20 17 21 17 32 -1 26 -45 83 -99 129 -123 27 -13 51 -33 54 -43 4 -14 23 -23 73 -34 38 -9 83 -16 100 -16 37 0 80 -39 80 -71 0 -22 0 -22 14 -3 12 15 26 19 76 18 34 -1 66 -6 73 -13 18 -18 26 -13 35 21 9 36 10 36 154 59 63 9 80 16 93 35 8 13 22 24 31 24 33 0 97 43 126 85 36 50 44 54 53 25 9 -27 19 -25 33 5 6 14 17 25 24 25 7 0 1 10 -14 23 -23 18 -30 38 -45 121 l-18 98 -44 17 c-54 20 -62 37 -22 46 16 3 35 13 42 21 18 21 34 17 48 -13 l12 -27 19 42 c33 72 70 113 99 110 24 -3 26 -6 26 -58 0 -30 -3 -64 -7 -75 -6 -16 -1 -24 22 -37 26 -15 30 -23 30 -60 0 -38 5 -65 25 -154 2 -11 16 -26 30 -32 14 -6 25 -20 25 -30 0 -33 56 -98 104 -121 25 -12 48 -30 51 -40 6 -20 116 -51 178 -51 35 0 57 -14 76 -47 8 -15 11 -15 42 0 38 17 121 17 127 -1 7 -22 19 -12 26 20 9 44 20 55 77 69 30 8 49 18 49 27 0 28 35 112 46 112 6 0 14 -10 17 -22 l6 -22 24 22 c13 12 28 22 34 22 5 0 26 -18 46 -40 20 -23 61 -52 92 -65 55 -25 55 -25 40 -49 -14 -21 -14 -28 -4 -48 l13 -23 6 30 c6 34 14 35 149 18 61 -8 78 -14 97 -36 26 -31 41 -33 70 -13 24 17 106 15 112 -2 8 -24 20 -11 26 28 7 47 24 54 127 55 76 0 115 -16 124 -52 4 -19 10 -23 23 -18 9 4 45 9 80 10 48 3 65 0 69 -11 10 -26 23 -15 23 20 0 37 11 50 53 60 18 4 31 16 37 34 6 15 15 35 20 44 6 10 10 27 10 38 0 12 11 32 25 45 l24 25 -35 15 c-33 14 -35 17 -28 47 8 40 8 109 -1 137 -5 16 2 29 23 50 23 24 27 32 17 43 -7 7 -15 37 -18 67 -3 43 -1 57 14 72 25 25 24 25 -12 38 -30 10 -31 12 -23 53 8 46 8 89 -1 126 -4 17 3 31 25 54 28 28 30 32 15 48 -17 19 -20 91 -5 121 6 11 21 19 35 19 14 0 25 5 25 10 0 6 -15 10 -33 10 -18 0 -42 6 -52 14 -16 11 -17 18 -7 55 13 52 -4 101 -49 138 -36 31 -36 37 -2 49 l27 9 -28 19 c-28 18 -37 15 -48 -17 -2 -4 -27 -3 -57 4 -30 6 -72 9 -94 6 -32 -4 -46 -1 -72 19 -28 21 -34 22 -45 9 -18 -22 -88 -19 -128 5 -38 23 -42 24 -42 8 -1 -35 -16 -40 -66 -23 -27 9 -72 17 -101 16 -47 -1 -54 2 -74 30 l-21 30 -25 -23 c-20 -19 -37 -23 -91 -25 -66 -1 -67 -2 -76 -32 -6 -19 -17 -33 -30 -36 -53 -12 -145 -25 -153 -23 -4 2 -9 -1 -10 -7 -1 -5 7 -9 17 -7 11 2 20 -2 20 -7 0 -6 -8 -11 -18 -11 -13 0 -29 -24 -56 -85 -30 -66 -44 -87 -63 -91 -33 -9 -37 -1 -34 55 3 58 -16 101 -60 133 -28 21 -29 24 -13 35 10 7 26 13 36 13 10 0 18 5 18 10 0 6 -11 10 -25 10 -14 0 -34 9 -46 21 -11 11 -21 19 -22 17 -18 -36 -27 -43 -53 -41 -16 1 -59 3 -96 5 -48 2 -70 7 -74 18 -4 8 -10 50 -14 93 -5 61 -12 82 -29 98 -11 11 -21 27 -21 35 0 45 -73 106 -130 109 -27 2 -38 8 -48 29 -12 24 -17 26 -80 25 -87 -2 -148 -16 -97 -23 14 -2 13 -21 -2 -20 -10 1 -36 -60 -57 -132 -4 -11 -17 -31 -31 -44 -18 -17 -23 -29 -18 -51 13 -67 -11 -93 -102 -113 -40 -9 -51 -16 -53 -34 -2 -15 2 -22 13 -22 12 0 15 -5 11 -16 -3 -9 -6 -18 -6 -20 0 -10 -24 -2 -34 12 -10 13 -19 14 -46 6 -19 -6 -27 -11 -17 -11 14 -1 18 -8 15 -32 -5 -51 -30 -59 -74 -23 -44 35 -53 54 -27 54 15 0 16 2 3 10 -20 13 -60 13 -60 -1 0 -14 -62 -7 -67 7 -2 6 6 14 18 17 38 10 14 32 -50 43 -37 7 -71 20 -85 33 -29 28 -40 27 -55 -5 -9 -20 -17 -25 -34 -21 -63 16 -98 18 -130 9 -32 -9 -38 -7 -63 19 l-28 29 -23 -22 c-17 -16 -40 -23 -90 -27 -65 -6 -68 -7 -71 -33 -3 -24 -8 -27 -65 -35 -52 -7 -61 -11 -59 -26 4 -24 -15 -47 -52 -62 -23 -10 -34 -26 -50 -71 -24 -67 -47 -84 -114 -84 -76 0 -81 7 -81 113 -1 50 -2 101 -3 112 -2 15 5 22 35 29 42 11 46 20 17 36 -16 9 -20 21 -20 63 0 29 6 62 14 72 12 16 9 21 -20 48 -24 20 -34 38 -34 58 0 16 -10 58 -21 93 -24 73 -27 75 -138 77 -67 1 -75 4 -101 32 -22 23 -32 28 -42 20 -20 -16 -134 -27 -143 -14 -8 14 -25 5 -25 -13 0 -9 18 -16 45 -20 49 -8 58 -21 23 -32 -13 -3 -31 -13 -40 -21 -22 -20 -48 -10 -48 17 0 15 -5 20 -17 18 -13 -2 -17 -11 -15 -29 2 -14 -6 -36 -18 -51 -11 -14 -20 -30 -20 -35 0 -5 -14 -22 -30 -38 -20 -19 -27 -32 -20 -39 14 -14 13 -63 -1 -72 -6 -4 -24 -35 -40 -69 -25 -55 -31 -62 -52 -58 -14 3 -38 -2 -53 -10 l-29 -16 33 -11 c42 -16 41 -33 -8 -98 -22 -29 -40 -55 -40 -59 0 -3 -8 -24 -17 -45 -14 -32 -25 -41 -59 -50 l-42 -12 -6 -58 c-12 -106 -20 -110 -67 -35 -18 28 -42 61 -52 71 -19 19 -19 20 -1 33 10 7 24 13 31 13 23 0 14 17 -15 29 -49 21 -87 111 -71 170 2 8 -4 17 -14 19 -12 2 -20 -3 -24 -17 -6 -25 -13 -26 -38 -7 -19 14 -19 15 -2 34 15 17 16 23 5 48 -7 16 -28 44 -45 62 -21 20 -33 43 -33 60 0 21 -11 34 -50 59 -44 29 -51 39 -70 99 -11 36 -20 76 -20 89 0 20 -6 23 -61 29 -34 3 -78 6 -98 6 -28 0 -42 7 -61 30 -19 23 -29 27 -40 20z m191 -215 c21 -38 43 -79 49 -90 5 -11 14 -27 19 -35 5 -8 12 -22 15 -30 4 -8 15 -28 26 -45 10 -16 31 -52 45 -80 14 -27 41 -77 60 -110 19 -33 39 -69 45 -80 5 -11 14 -28 20 -37 5 -10 15 -26 20 -35 6 -10 15 -27 20 -38 6 -11 26 -47 44 -80 19 -33 55 -101 80 -151 62 -123 70 -128 96 -67 12 26 26 55 31 63 5 8 20 38 34 65 15 28 42 77 61 110 19 33 46 83 60 110 14 28 34 64 44 80 11 17 24 39 30 50 5 11 14 28 20 38 21 37 30 54 56 102 14 28 41 77 59 110 19 33 44 80 57 105 12 25 33 62 46 83 l23 38 155 -3 155 -3 0 -820 1 -820 -134 0 -133 0 3 550 c2 339 7 578 14 623 6 40 8 76 4 79 -9 9 -37 -8 -47 -28 -4 -8 -31 -61 -59 -119 -29 -58 -67 -132 -86 -165 -18 -33 -38 -69 -44 -80 -6 -11 -26 -47 -45 -80 -18 -33 -46 -82 -60 -110 -15 -27 -34 -61 -42 -75 -8 -14 -36 -65 -62 -115 l-47 -90 -123 -3 c-142 -3 -128 -12 -191 113 -23 44 -50 96 -62 115 -11 19 -32 57 -47 83 -14 27 -40 74 -58 105 -17 31 -39 71 -47 87 -8 17 -29 53 -45 80 -17 28 -33 57 -37 65 -3 8 -9 22 -14 30 -11 19 -41 80 -69 143 -28 63 -46 57 -45 -14 0 -30 2 -310 3 -624 l3 -570 -136 -1 -136 -1 0 824 0 823 166 -2 167 -3 38 -70z m3342 8 c3 -5 1 -84 -4 -177 -6 -93 -8 -171 -5 -174 5 -4 303 -4 351 1 19 2 20 -4 20 -113 l0 -115 -135 4 c-74 3 -157 5 -185 5 l-49 1 2 -305 c2 -168 6 -325 9 -350 15 -122 151 -182 302 -133 28 9 54 13 57 10 9 -8 5 -221 -4 -228 -18 -15 -218 -30 -262 -20 -25 6 -59 11 -76 11 -42 0 -142 54 -181 98 -39 42 -65 95 -87 178 -13 50 -16 118 -16 403 l0 342 -82 -6 c-46 -3 -97 -8 -115 -11 -17 -2 -34 0 -38 6 -8 12 -11 217 -4 224 2 2 54 0 114 -4 61 -4 114 -4 119 1 5 5 8 86 7 184 l-2 175 130 0 c71 0 132 -3 134 -7z m1382 -303 c4 -6 -5 -10 -20 -10 -15 0 -24 4 -20 10 3 6 12 10 20 10 8 0 17 -4 20 -10z m-2375 -39 c85 -23 114 -37 180 -87 71 -54 132 -126 155 -184 4 -8 12 -28 19 -45 28 -64 45 -145 56 -268 7 -71 9 -131 6 -134 -8 -9 -760 -3 -818 6 -29 5 -58 6 -65 4 -31 -12 -2 -102 61 -188 31 -43 107 -105 128 -105 7 0 22 -7 32 -15 32 -24 226 -20 301 6 58 20 130 63 154 93 23 27 48 18 84 -31 19 -27 47 -59 61 -72 38 -36 33 -61 -16 -91 -22 -14 -53 -33 -67 -42 -61 -40 -176 -82 -261 -94 -71 -10 -201 -10 -265 0 -214 33 -398 201 -465 426 -20 66 -19 339 2 405 36 114 80 188 158 265 74 73 179 139 225 141 11 0 36 7 55 14 51 20 202 17 280 -4z m2190 -2 c68 -21 140 -67 184 -115 51 -58 71 -58 63 -1 -4 23 -9 56 -13 74 -8 39 -6 39 145 33 102 -4 116 -7 115 -22 0 -10 -1 -286 -2 -613 l-2 -595 -119 0 c-141 0 -150 5 -132 74 15 60 14 106 -2 106 -6 0 -26 -16 -42 -36 -17 -21 -41 -47 -54 -60 -33 -31 -136 -84 -164 -84 -12 0 -46 -7 -75 -14 -45 -12 -62 -12 -120 0 -37 8 -77 14 -88 14 -32 0 -157 70 -206 115 -44 41 -99 108 -111 135 -4 8 -11 22 -15 30 -18 30 -40 87 -56 143 -25 83 -25 323 0 398 18 57 41 114 55 139 5 8 14 26 19 39 11 25 145 163 170 174 8 4 35 18 59 32 24 14 54 25 65 25 12 1 32 7 46 15 32 19 213 15 280 -6z m-2984 -249 c-3 -11 -9 -29 -12 -40 -8 -29 -34 -25 -34 4 0 38 10 56 32 56 15 0 18 -5 14 -20z m2130 -105 c4 -24 14 -39 33 -48 21 -10 25 -19 23 -42 -1 -17 -4 -63 -6 -104 -3 -62 -7 -77 -25 -90 -20 -15 -22 -24 -19 -111 3 -86 5 -95 23 -98 11 -2 27 -11 36 -19 20 -17 32 -69 21 -88 -12 -22 -79 11 -90 44 -10 27 -13 29 -94 33 -127 7 -128 8 -128 133 0 88 -3 106 -17 114 -15 8 -17 23 -14 103 2 67 7 95 17 101 8 4 14 19 14 31 0 48 28 65 110 69 41 2 83 4 92 5 12 1 19 -8 24 -33z m-717 -64 c15 -15 18 -34 18 -114 l0 -96 -28 -11 c-29 -12 -74 -7 -96 11 -8 7 -9 20 -2 42 10 33 6 68 -14 124 -15 44 3 63 59 63 30 0 50 -6 63 -19z m-1452 -17 c1 -5 -2 -16 -7 -24 -9 -13 -11 -13 -19 -1 -5 8 -7 20 -4 28 6 15 25 13 30 -3z m812 -393 c7 -12 27 -21 56 -25 55 -9 60 -31 10 -52 -48 -20 -55 -18 -67 16 -8 25 -14 29 -32 23 -34 -11 -98 -11 -138 1 -30 8 -38 16 -38 33 0 22 3 23 100 23 87 0 101 -2 109 -19z m1521 -236 c11 -13 8 -15 -19 -15 -30 0 -39 9 -24 23 11 11 30 8 43 -8z"/> <path d="M5840 4676 c-76 -19 -156 -75 -185 -128 -44 -79 -79 -167 -71 -175 2 -3 148 -5 323 -4 l318 0 3 26 c2 14 -5 47 -14 73 -45 121 -115 186 -226 211 -56 13 -88 12 -148 -3z m157 -119 c39 -10 61 -37 47 -58 -6 -11 -147 -22 -183 -14 -35 8 -42 36 -16 73 14 18 22 21 63 16 26 -3 66 -10 89 -17z"/> <path d="M8095 4670 c-27 -4 -68 -15 -89 -24 -45 -20 -156 -128 -156 -152 0 -8 -6 -25 -14 -37 -25 -40 -41 -181 -28 -246 7 -31 12 -67 12 -78 0 -28 28 -89 64 -138 32 -44 107 -105 129 -105 8 0 32 -7 53 -16 46 -19 142 -14 214 11 82 30 185 122 205 183 10 33 9 382 -2 407 -26 65 -105 141 -183 176 -43 19 -138 28 -205 19z m165 -116 c20 -5 32 -15 39 -35 5 -16 21 -33 33 -38 13 -5 29 -15 35 -23 15 -17 37 -188 26 -199 -4 -4 -24 -11 -43 -16 -31 -8 -35 -13 -32 -38 2 -16 1 -61 -3 -100 l-6 -71 -57 -13 c-31 -7 -78 -11 -104 -10 -33 2 -53 -2 -66 -14 -23 -21 -31 -21 -54 0 -24 21 -23 40 2 48 25 8 26 25 1 25 -36 0 -68 37 -76 87 -6 38 -4 49 11 60 16 12 16 13 -2 19 -74 23 -74 24 -43 134 23 80 54 120 93 120 27 0 46 15 70 54 18 28 19 28 82 22 36 -4 78 -9 94 -12z m100 -383 c0 -26 -10 -51 -21 -51 -5 0 -9 16 -9 35 0 24 5 35 15 35 8 0 15 -9 15 -19z"/> <path d="M8270 4430 c0 -11 5 -20 10 -20 6 0 10 9 10 20 0 11 -4 20 -10 20 -5 0 -10 -9 -10 -20z"/> <path d="M8270 4290 c0 -19 3 -21 12 -12 9 9 9 15 0 24 -9 9 -12 7 -12 -12z"/> <path d="M7195 4360 c-1 -86 2 -100 15 -97 8 2 13 10 10 18 -2 8 -4 51 -4 97 0 52 -3 82 -10 82 -7 0 -11 -36 -11 -100z"/> <path d="M7370 4431 c0 -11 5 -23 10 -26 6 -4 10 5 10 19 0 14 -4 26 -10 26 -5 0 -10 -9 -10 -19z"/> <path d="M7373 4300 c-6 -14 -7 -29 -2 -34 13 -15 21 -1 17 31 l-4 28 -11 -25z"/> <path d="M2470 5415 c0 -8 7 -15 15 -15 8 0 15 4 15 9 0 5 -7 11 -15 15 -9 3 -15 0 -15 -9z"/> <path d="M197 5374 c-8 -8 1 -24 14 -24 5 0 9 7 9 15 0 15 -12 20 -23 9z"/> <path d="M1510 5370 c0 -5 7 -10 15 -10 8 0 15 5 15 10 0 6 -7 10 -15 10 -8 0 -15 -4 -15 -10z"/> <path d="M6012 5368 c6 -18 28 -21 28 -4 0 9 -7 16 -16 16 -9 0 -14 -5 -12 -12z"/> <path d="M4220 4735 c0 -8 5 -15 10 -15 6 0 10 7 10 15 0 8 -4 15 -10 15 -5 0 -10 -7 -10 -15z"/> <path d="M4669 4008 c0 -2 -1 -45 -1 -97 -1 -65 2 -96 10 -99 7 -2 12 2 13 10 1 12 0 133 -1 171 0 13 -18 26 -21 15z"/> <path d="M6680 3774 c0 -17 22 -14 28 4 2 7 -3 12 -12 12 -9 0 -16 -7 -16 -16z"/> <path d="M3327 3563 c-11 -10 -8 -53 3 -53 6 0 10 14 10 30 0 31 -2 35 -13 23z"/> <path d="M6920 3535 c0 -14 5 -25 10 -25 6 0 10 11 10 25 0 14 -4 25 -10 25 -5 0 -10 -11 -10 -25z"/> <path d="M5120 3389 c0 -11 5 -17 10 -14 6 3 10 13 10 21 0 8 -4 14 -10 14 -5 0 -10 -9 -10 -21z"/> <path d="M1970 2935 c0 -8 5 -15 10 -15 6 0 10 7 10 15 0 8 -4 15 -10 15 -5 0 -10 -7 -10 -15z"/> <path d="M1520 2040 c0 -19 3 -21 12 -12 9 9 9 15 0 24 -9 9 -12 7 -12 -12z"/> <path d="M1970 2040 c0 -19 3 -21 12 -12 9 9 9 15 0 24 -9 9 -12 7 -12 -12z"/> <path d="M3770 1590 c0 -19 3 -21 12 -12 9 9 9 15 0 24 -9 9 -12 7 -12 -12z"/> <path d="M4220 1590 c0 -19 3 -21 12 -12 9 9 9 15 0 24 -9 9 -12 7 -12 -12z"/> <path d="M5570 835 c0 -8 5 -15 10 -15 6 0 10 7 10 15 0 8 -4 15 -10 15 -5 0 -10 -7 -10 -15z"/> <path d="M1966 682 c-3 -6 -1 -14 5 -17 15 -10 25 3 12 16 -7 7 -13 7 -17 1z"/> <path d="M1065 391 c-6 -11 9 -23 19 -14 9 9 7 23 -3 23 -6 0 -12 -4 -16 -9z"/> <path d="M4670 225 c0 -8 5 -15 10 -15 6 0 10 7 10 15 0 8 -4 15 -10 15 -5 0 -10 -7 -10 -15z"/> </g> </svg> 