<?xml version="1.0" standalone="no"?>
<!DOCTYPE svg PUBLIC "-//W3C//DTD SVG 20010904//EN"
 "http://www.w3.org/TR/2001/REC-SVG-20010904/DTD/svg10.dtd">
<svg version="1.0" xmlns="http://www.w3.org/2000/svg"
 width="300.000000pt" height="300.000000pt" viewBox="0 0 300.000000 300.000000"
 preserveAspectRatio="xMidYMid meet">
<metadata>
Created by potrace 1.10, written by Peter Selinger 2001-2011
</metadata>
<g transform="translate(0.000000,300.000000) scale(0.050000,-0.050000)"
fill="#ffffff" stroke="none">
<path d="M254 3871 c-122 -43 -214 -151 -214 -248 0 -45 202 -88 216 -46 55
167 284 164 284 -4 l0 -65 -171 -32 c-255 -48 -369 -155 -369 -346 0 -252 273
-372 502 -221 l82 54 56 -53 c66 -64 107 -57 191 31 l59 61 -39 64 c-31 53
-40 118 -50 368 -11 298 -12 304 -67 362 -96 100 -314 134 -480 75z m286 -616
c0 -166 -144 -283 -236 -191 -58 58 -17 224 62 256 118 47 174 26 174 -65z"/>
<path d="M1407 3871 c-35 -15 -80 -53 -100 -84 l-37 -56 -10 70 -10 69 -110 0
-110 0 0 -500 0 -500 120 0 120 0 11 360 c6 198 13 362 15 364 2 2 18 17 35
35 39 39 89 40 140 3 35 -26 40 -62 49 -395 l10 -367 120 0 120 0 10 353 c11
373 28 437 119 437 101 0 110 -34 121 -423 l10 -367 120 0 120 0 6 310 c8 416
-6 545 -69 620 -104 124 -287 122 -404 -3 l-56 -60 -35 53 c-63 96 -192 130
-305 81z"/>
<path d="M2670 3862 c-123 -56 -242 -218 -196 -264 57 -55 216 -39 256 26 77
126 250 87 250 -55 0 -62 -4 -65 -95 -78 -311 -43 -429 -133 -440 -336 -16
-284 269 -419 497 -236 l75 61 43 -60 c55 -77 91 -75 190 8 l80 68 -45 80
c-40 71 -45 107 -45 347 0 232 -5 276 -40 333 -82 134 -353 188 -530 106z
m305 -623 c-21 -226 -263 -286 -263 -65 0 97 80 166 192 166 l81 0 -10 -101z"/>
<path d="M4573 3878 c-435 -105 -409 -970 31 -1030 342 -47 570 290 468 692
-67 260 -266 395 -499 338z m167 -198 c83 -44 113 -424 45 -560 -82 -165 -224
-85 -243 135 -30 339 48 505 198 425z"/>
<path d="M5625 3871 c-35 -16 -82 -58 -103 -93 l-39 -64 -7 78 -6 78 -110 0
-110 0 -5 -506 -6 -506 126 6 125 6 10 353 c11 382 27 437 131 437 87 0 98
-43 109 -428 l10 -362 120 0 120 0 0 420 c0 448 -11 504 -111 566 -63 39 -184
46 -254 15z"/>
<path d="M3468 3852 c-6 -16 -8 -58 -4 -95 l6 -67 165 -6 c202 -7 203 10 -15
-303 -179 -256 -180 -259 -180 -379 0 -133 8 -140 106 -87 90 48 418 48 508 0
96 -52 106 -46 106 74 0 132 -48 168 -244 186 -141 13 -146 -10 72 304 172
247 195 307 145 376 -28 38 -650 35 -665 -3z"/>
<path d="M3675 2802 c-270 -56 -298 -134 -44 -125 271 10 294 -29 186 -305
-54 -138 -42 -179 31 -102 135 144 229 484 143 517 -59 23 -238 31 -316 15z"/>
<path d="M853 2715 c45 -74 326 -269 537 -373 647 -320 1410 -323 2060 -9 223
107 302 167 283 216 -15 40 -5 41 -257 -48 -758 -270 -1676 -212 -2401 151
-176 89 -251 110 -222 63z"/>
</g>
</svg>
